G04 #@! TF.FileFunction,Copper,L1,Top,Signal*
%FSLAX46Y46*%
G04 Gerber Fmt 4.6, Leading zero omitted, Abs format (unit mm)*
G04 Created by KiCad (PCBNEW 4.0.6-e0-6349~53~ubuntu14.04.1) date Wed May 31 15:55:14 2017*
%MOMM*%
%LPD*%
G01*
G04 APERTURE LIST*
%ADD10C,0.100000*%
%ADD11C,1.600000*%
%ADD12O,1.600000X1.600000*%
%ADD13R,2.400000X1.600000*%
%ADD14O,2.400000X1.600000*%
%ADD15R,1.600000X2.400000*%
%ADD16O,1.600000X2.400000*%
%ADD17R,1.700000X1.700000*%
%ADD18O,1.700000X1.700000*%
%ADD19C,3.810000*%
%ADD20C,1.520000*%
%ADD21R,1.520000X1.520000*%
%ADD22R,1.727200X1.727200*%
%ADD23O,1.727200X1.727200*%
%ADD24R,2.800000X2.800000*%
%ADD25O,2.800000X2.800000*%
%ADD26C,1.000000*%
%ADD27R,1.000000X1.000000*%
%ADD28O,2.032000X2.540000*%
%ADD29R,1.800000X1.800000*%
%ADD30O,1.800000X1.800000*%
%ADD31R,1.500000X0.400000*%
%ADD32C,3.000000*%
%ADD33O,3.000000X3.000000*%
%ADD34R,2.500000X2.500000*%
%ADD35C,2.500000*%
%ADD36O,3.010000X1.510000*%
%ADD37O,1.510000X3.010000*%
%ADD38C,1.998980*%
%ADD39R,1.600000X1.600000*%
%ADD40C,1.800000*%
%ADD41C,0.900000*%
%ADD42C,1.500000*%
%ADD43C,1.200000*%
%ADD44C,2.000000*%
%ADD45C,0.400000*%
%ADD46C,0.254000*%
%ADD47C,0.200000*%
%ADD48C,1.000000*%
%ADD49C,0.500000*%
%ADD50C,0.300000*%
%ADD51C,1.500000*%
%ADD52C,0.250000*%
G04 APERTURE END LIST*
D10*
D11*
X125095000Y-101600000D03*
D12*
X127635000Y-101600000D03*
D11*
X119253000Y-110744000D03*
X119253000Y-105744000D03*
X105156000Y-95504000D03*
X110156000Y-95504000D03*
D13*
X111760000Y-76200000D03*
D14*
X119380000Y-91440000D03*
X111760000Y-78740000D03*
X119380000Y-88900000D03*
X111760000Y-81280000D03*
X119380000Y-86360000D03*
X111760000Y-83820000D03*
X119380000Y-83820000D03*
X111760000Y-86360000D03*
X119380000Y-81280000D03*
X111760000Y-88900000D03*
X119380000Y-78740000D03*
X111760000Y-91440000D03*
X119380000Y-76200000D03*
D11*
X109220000Y-66040000D03*
X109220000Y-61040000D03*
X120142000Y-72390000D03*
D12*
X122682000Y-72390000D03*
D15*
X54610000Y-62230000D03*
D16*
X69850000Y-54610000D03*
X57150000Y-62230000D03*
X67310000Y-54610000D03*
X59690000Y-62230000D03*
X64770000Y-54610000D03*
X62230000Y-62230000D03*
X62230000Y-54610000D03*
X64770000Y-62230000D03*
X59690000Y-54610000D03*
X67310000Y-62230000D03*
X57150000Y-54610000D03*
X69850000Y-62230000D03*
X54610000Y-54610000D03*
D17*
X76200000Y-121920000D03*
D18*
X73660000Y-121920000D03*
X71120000Y-121920000D03*
X68580000Y-121920000D03*
X66040000Y-121920000D03*
X63500000Y-121920000D03*
X60960000Y-121920000D03*
X58420000Y-121920000D03*
X55880000Y-121920000D03*
X53340000Y-121920000D03*
X50800000Y-121920000D03*
X48260000Y-121920000D03*
X45720000Y-121920000D03*
X43180000Y-121920000D03*
X40640000Y-121920000D03*
D17*
X96520000Y-99060000D03*
D18*
X99060000Y-99060000D03*
X101600000Y-99060000D03*
X104140000Y-99060000D03*
X106680000Y-99060000D03*
X109220000Y-99060000D03*
X111760000Y-99060000D03*
X114300000Y-99060000D03*
X116840000Y-99060000D03*
X119380000Y-99060000D03*
X121920000Y-99060000D03*
X124460000Y-99060000D03*
X127000000Y-99060000D03*
X129540000Y-99060000D03*
X132080000Y-99060000D03*
X134620000Y-99060000D03*
X137160000Y-99060000D03*
X139700000Y-99060000D03*
X142240000Y-99060000D03*
X144780000Y-99060000D03*
X147320000Y-99060000D03*
X149860000Y-99060000D03*
X152400000Y-99060000D03*
X154940000Y-99060000D03*
X157480000Y-99060000D03*
X160020000Y-99060000D03*
D17*
X83820000Y-116840000D03*
D18*
X83820000Y-114300000D03*
X83820000Y-111760000D03*
X83820000Y-109220000D03*
X83820000Y-106680000D03*
X83820000Y-104140000D03*
X83820000Y-101600000D03*
X83820000Y-99060000D03*
D19*
X21590000Y-138430000D03*
X21590000Y-49530000D03*
D20*
X19050000Y-128270000D03*
X19050000Y-125730000D03*
X19050000Y-123190000D03*
X19050000Y-120650000D03*
X19050000Y-118110000D03*
X19050000Y-115570000D03*
X19050000Y-113030000D03*
X19050000Y-110490000D03*
X19050000Y-107950000D03*
X19050000Y-105410000D03*
X19050000Y-102870000D03*
X19050000Y-100330000D03*
X19050000Y-97790000D03*
X19050000Y-95250000D03*
X19050000Y-92710000D03*
X19050000Y-90170000D03*
X19050000Y-87630000D03*
X19050000Y-85090000D03*
X19050000Y-82550000D03*
X19050000Y-80010000D03*
X19050000Y-77470000D03*
X19050000Y-74930000D03*
X19050000Y-72390000D03*
X19050000Y-69850000D03*
X19050000Y-67310000D03*
X19050000Y-64770000D03*
X19050000Y-62230000D03*
X19050000Y-59690000D03*
X19050000Y-57150000D03*
X19050000Y-54610000D03*
X19050000Y-130810000D03*
D21*
X19050000Y-133350000D03*
D20*
X21590000Y-133350000D03*
X21590000Y-130810000D03*
X21590000Y-128270000D03*
X21590000Y-125730000D03*
X21590000Y-123190000D03*
X21590000Y-120650000D03*
X21590000Y-118110000D03*
X21590000Y-115570000D03*
X21590000Y-113030000D03*
X21590000Y-110490000D03*
X21590000Y-107950000D03*
X21590000Y-105410000D03*
X21590000Y-102870000D03*
X21590000Y-100330000D03*
X21590000Y-97790000D03*
X21590000Y-95250000D03*
X21590000Y-92710000D03*
X21590000Y-90170000D03*
X21590000Y-87630000D03*
X21590000Y-85090000D03*
X21590000Y-82550000D03*
X21590000Y-80010000D03*
X21590000Y-77470000D03*
X21590000Y-74930000D03*
X21590000Y-72390000D03*
X21590000Y-69850000D03*
X21590000Y-67310000D03*
X21590000Y-64770000D03*
X21590000Y-62230000D03*
X21590000Y-59690000D03*
X21590000Y-57150000D03*
X21590000Y-54610000D03*
X24130000Y-133350000D03*
X24130000Y-130810000D03*
X24130000Y-128270000D03*
X24130000Y-125730000D03*
X24130000Y-123190000D03*
X24130000Y-120650000D03*
X24130000Y-118110000D03*
X24130000Y-115570000D03*
X24130000Y-113030000D03*
X24130000Y-110490000D03*
X24130000Y-107950000D03*
X24130000Y-105410000D03*
X24130000Y-102870000D03*
X24130000Y-100330000D03*
X24130000Y-97790000D03*
X24130000Y-95250000D03*
X24130000Y-92710000D03*
X24130000Y-90170000D03*
X24130000Y-87630000D03*
X24130000Y-85090000D03*
X24130000Y-82550000D03*
X24130000Y-80010000D03*
X24130000Y-77470000D03*
X24130000Y-74930000D03*
X24130000Y-72390000D03*
X24130000Y-69850000D03*
X24130000Y-67310000D03*
X24130000Y-64770000D03*
X24130000Y-62230000D03*
X24130000Y-59690000D03*
X24130000Y-57150000D03*
X24130000Y-54610000D03*
D22*
X91440000Y-127000000D03*
D23*
X91440000Y-129540000D03*
X88900000Y-127000000D03*
X88900000Y-129540000D03*
X86360000Y-127000000D03*
X86360000Y-129540000D03*
X83820000Y-127000000D03*
X83820000Y-129540000D03*
X81280000Y-127000000D03*
X81280000Y-129540000D03*
X78740000Y-127000000D03*
X78740000Y-129540000D03*
X76200000Y-127000000D03*
X76200000Y-129540000D03*
X73660000Y-127000000D03*
X73660000Y-129540000D03*
X71120000Y-127000000D03*
X71120000Y-129540000D03*
X68580000Y-127000000D03*
X68580000Y-129540000D03*
X66040000Y-127000000D03*
X66040000Y-129540000D03*
X63500000Y-127000000D03*
X63500000Y-129540000D03*
X60960000Y-127000000D03*
X60960000Y-129540000D03*
X58420000Y-127000000D03*
X58420000Y-129540000D03*
X55880000Y-127000000D03*
X55880000Y-129540000D03*
X53340000Y-127000000D03*
X53340000Y-129540000D03*
X50800000Y-127000000D03*
X50800000Y-129540000D03*
X48260000Y-127000000D03*
X48260000Y-129540000D03*
X45720000Y-127000000D03*
X45720000Y-129540000D03*
X43180000Y-127000000D03*
X43180000Y-129540000D03*
X40640000Y-127000000D03*
X40640000Y-129540000D03*
X38100000Y-127000000D03*
X38100000Y-129540000D03*
X35560000Y-127000000D03*
X35560000Y-129540000D03*
D22*
X91440000Y-78740000D03*
D23*
X91440000Y-81280000D03*
X88900000Y-78740000D03*
X88900000Y-81280000D03*
X86360000Y-78740000D03*
X86360000Y-81280000D03*
X83820000Y-78740000D03*
X83820000Y-81280000D03*
X81280000Y-78740000D03*
X81280000Y-81280000D03*
X78740000Y-78740000D03*
X78740000Y-81280000D03*
X76200000Y-78740000D03*
X76200000Y-81280000D03*
X73660000Y-78740000D03*
X73660000Y-81280000D03*
X71120000Y-78740000D03*
X71120000Y-81280000D03*
X68580000Y-78740000D03*
X68580000Y-81280000D03*
X66040000Y-78740000D03*
X66040000Y-81280000D03*
X63500000Y-78740000D03*
X63500000Y-81280000D03*
X60960000Y-78740000D03*
X60960000Y-81280000D03*
X58420000Y-78740000D03*
X58420000Y-81280000D03*
X55880000Y-78740000D03*
X55880000Y-81280000D03*
X53340000Y-78740000D03*
X53340000Y-81280000D03*
X50800000Y-78740000D03*
X50800000Y-81280000D03*
X48260000Y-78740000D03*
X48260000Y-81280000D03*
X45720000Y-78740000D03*
X45720000Y-81280000D03*
X43180000Y-78740000D03*
X43180000Y-81280000D03*
X40640000Y-78740000D03*
X40640000Y-81280000D03*
X38100000Y-78740000D03*
X38100000Y-81280000D03*
X35560000Y-78740000D03*
X35560000Y-81280000D03*
D24*
X158750000Y-53340000D03*
D25*
X146050000Y-53340000D03*
D24*
X140970000Y-53340000D03*
D25*
X128270000Y-53340000D03*
D24*
X163830000Y-88900000D03*
D25*
X151130000Y-88900000D03*
D26*
X133350000Y-48260000D03*
X132080000Y-49530000D03*
D27*
X132080000Y-46990000D03*
D26*
X127000000Y-48260000D03*
X128270000Y-46990000D03*
D27*
X128270000Y-49530000D03*
D28*
X151130000Y-64770000D03*
X153670000Y-64770000D03*
X148590000Y-64770000D03*
X153670000Y-48260000D03*
X156210000Y-48260000D03*
X151130000Y-48260000D03*
D26*
X143510000Y-82550000D03*
X144780000Y-83820000D03*
D27*
X142240000Y-83820000D03*
D29*
X149860000Y-93980000D03*
D30*
X152400000Y-93980000D03*
X154940000Y-93980000D03*
D26*
X83820000Y-71120000D03*
X85090000Y-69850000D03*
D27*
X85090000Y-72390000D03*
D26*
X68580000Y-67310000D03*
X69850000Y-66040000D03*
D27*
X69850000Y-68580000D03*
D26*
X80645000Y-89535000D03*
X81915000Y-88265000D03*
D27*
X81915000Y-90805000D03*
D31*
X149800000Y-74280000D03*
X149800000Y-74930000D03*
X149800000Y-75580000D03*
X152460000Y-75580000D03*
X152460000Y-74930000D03*
X152460000Y-74280000D03*
D32*
X163830000Y-72390000D03*
D33*
X163830000Y-52090000D03*
D29*
X139700000Y-48260000D03*
D30*
X137160000Y-48260000D03*
D34*
X171450000Y-88900000D03*
D35*
X171450000Y-93900000D03*
D34*
X171450000Y-63500000D03*
D35*
X171450000Y-58500000D03*
D34*
X171450000Y-74930000D03*
D35*
X171450000Y-69930000D03*
D36*
X162560000Y-78740000D03*
X162560000Y-81280000D03*
X162560000Y-83820000D03*
D37*
X173990000Y-82550000D03*
X171450000Y-82550000D03*
X168910000Y-82550000D03*
D38*
X139580620Y-59690000D03*
X124340620Y-59690000D03*
D11*
X67310000Y-113030000D03*
X62310000Y-113030000D03*
X58420000Y-72390000D03*
X53420000Y-72390000D03*
X73660000Y-66040000D03*
X78660000Y-66040000D03*
X46990000Y-63500000D03*
X41990000Y-63500000D03*
X38100000Y-113030000D03*
X33100000Y-113030000D03*
X48260000Y-116840000D03*
X43260000Y-116840000D03*
X53340000Y-113030000D03*
X58340000Y-113030000D03*
X60960000Y-95250000D03*
X60960000Y-90250000D03*
D34*
X171450000Y-46990000D03*
D35*
X171450000Y-51990000D03*
D34*
X171450000Y-100330000D03*
D35*
X171450000Y-105330000D03*
D11*
X56515000Y-88900000D03*
X51515000Y-88900000D03*
X147320000Y-77470000D03*
X142320000Y-77470000D03*
X36195000Y-104140000D03*
X36195000Y-99140000D03*
X50800000Y-60960000D03*
X50800000Y-55960000D03*
D36*
X85090000Y-63500000D03*
X85090000Y-60960000D03*
X85090000Y-58420000D03*
X64770000Y-104140000D03*
X64770000Y-101600000D03*
X64770000Y-99060000D03*
D17*
X35560000Y-76200000D03*
D18*
X38100000Y-76200000D03*
X40640000Y-76200000D03*
X43180000Y-76200000D03*
X45720000Y-76200000D03*
X48260000Y-76200000D03*
X50800000Y-76200000D03*
X53340000Y-76200000D03*
X55880000Y-76200000D03*
X58420000Y-76200000D03*
X60960000Y-76200000D03*
X63500000Y-76200000D03*
X66040000Y-76200000D03*
X68580000Y-76200000D03*
X71120000Y-76200000D03*
X73660000Y-76200000D03*
X76200000Y-76200000D03*
X78740000Y-76200000D03*
X81280000Y-76200000D03*
X83820000Y-76200000D03*
X86360000Y-76200000D03*
X88900000Y-76200000D03*
X91440000Y-76200000D03*
D17*
X91440000Y-83820000D03*
D18*
X88900000Y-83820000D03*
X86360000Y-83820000D03*
X83820000Y-83820000D03*
X81280000Y-83820000D03*
X78740000Y-83820000D03*
X76200000Y-83820000D03*
X73660000Y-83820000D03*
X71120000Y-83820000D03*
X68580000Y-83820000D03*
X66040000Y-83820000D03*
X63500000Y-83820000D03*
X60960000Y-83820000D03*
X58420000Y-83820000D03*
X55880000Y-83820000D03*
X53340000Y-83820000D03*
X50800000Y-83820000D03*
X48260000Y-83820000D03*
X45720000Y-83820000D03*
X43180000Y-83820000D03*
X40640000Y-83820000D03*
X38100000Y-83820000D03*
X35560000Y-83820000D03*
D17*
X35560000Y-124460000D03*
D18*
X38100000Y-124460000D03*
X40640000Y-124460000D03*
X43180000Y-124460000D03*
X45720000Y-124460000D03*
X48260000Y-124460000D03*
X50800000Y-124460000D03*
X53340000Y-124460000D03*
X55880000Y-124460000D03*
X58420000Y-124460000D03*
X60960000Y-124460000D03*
X63500000Y-124460000D03*
X66040000Y-124460000D03*
X68580000Y-124460000D03*
X71120000Y-124460000D03*
X73660000Y-124460000D03*
X76200000Y-124460000D03*
X78740000Y-124460000D03*
X81280000Y-124460000D03*
X83820000Y-124460000D03*
X86360000Y-124460000D03*
X88900000Y-124460000D03*
X91440000Y-124460000D03*
D17*
X91440000Y-132080000D03*
D18*
X88900000Y-132080000D03*
X86360000Y-132080000D03*
X83820000Y-132080000D03*
X81280000Y-132080000D03*
X78740000Y-132080000D03*
X76200000Y-132080000D03*
X73660000Y-132080000D03*
X71120000Y-132080000D03*
X68580000Y-132080000D03*
X66040000Y-132080000D03*
X63500000Y-132080000D03*
X60960000Y-132080000D03*
X58420000Y-132080000D03*
X55880000Y-132080000D03*
X53340000Y-132080000D03*
X50800000Y-132080000D03*
X48260000Y-132080000D03*
X45720000Y-132080000D03*
X43180000Y-132080000D03*
X40640000Y-132080000D03*
X38100000Y-132080000D03*
X35560000Y-132080000D03*
D11*
X33020000Y-104140000D03*
X33020000Y-99140000D03*
D39*
X77470000Y-59690000D03*
D12*
X77470000Y-49530000D03*
D39*
X48260000Y-88900000D03*
D12*
X38100000Y-88900000D03*
D11*
X157480000Y-77470000D03*
D12*
X154940000Y-77470000D03*
D11*
X154940000Y-72390000D03*
D12*
X154940000Y-74930000D03*
D11*
X58420000Y-52070000D03*
D12*
X58420000Y-49530000D03*
D11*
X107950000Y-55880000D03*
D12*
X110490000Y-55880000D03*
D11*
X160020000Y-64770000D03*
D12*
X160020000Y-62230000D03*
D11*
X53340000Y-52070000D03*
D12*
X53340000Y-49530000D03*
D11*
X154940000Y-81280000D03*
D12*
X154940000Y-83820000D03*
D11*
X106045000Y-52070000D03*
D12*
X108585000Y-52070000D03*
D11*
X146050000Y-48260000D03*
D12*
X143510000Y-48260000D03*
D11*
X148590000Y-68580000D03*
D12*
X148590000Y-71120000D03*
D11*
X69850000Y-72390000D03*
D12*
X67310000Y-72390000D03*
D11*
X92710000Y-52070000D03*
D12*
X92710000Y-54610000D03*
D11*
X107950000Y-46990000D03*
D12*
X110490000Y-46990000D03*
D11*
X63500000Y-71120000D03*
D12*
X63500000Y-73660000D03*
D11*
X138430000Y-75946000D03*
D12*
X135890000Y-75946000D03*
D11*
X130810000Y-67310000D03*
D12*
X130810000Y-69850000D03*
D11*
X76835000Y-90170000D03*
D12*
X74295000Y-90170000D03*
D11*
X133350000Y-93980000D03*
D12*
X133350000Y-96520000D03*
D11*
X148590000Y-83820000D03*
D12*
X151130000Y-83820000D03*
D11*
X37465000Y-86360000D03*
D12*
X34925000Y-86360000D03*
D11*
X34290000Y-94615000D03*
D12*
X34290000Y-92075000D03*
D11*
X49530000Y-49530000D03*
D12*
X49530000Y-52070000D03*
D11*
X59690000Y-66040000D03*
D12*
X59690000Y-68580000D03*
D11*
X54610000Y-66040000D03*
D12*
X54610000Y-68580000D03*
D11*
X64770000Y-66040000D03*
D12*
X64770000Y-68580000D03*
D11*
X43180000Y-72390000D03*
D12*
X40640000Y-72390000D03*
D11*
X43180000Y-68580000D03*
D12*
X40640000Y-68580000D03*
D11*
X66040000Y-49530000D03*
D12*
X66040000Y-52070000D03*
D11*
X71120000Y-52070000D03*
D12*
X71120000Y-49530000D03*
D11*
X48260000Y-68580000D03*
D12*
X45720000Y-68580000D03*
D11*
X48260000Y-72390000D03*
D12*
X45720000Y-72390000D03*
D11*
X151130000Y-80010000D03*
D12*
X148590000Y-80010000D03*
D11*
X45720000Y-109220000D03*
D12*
X45720000Y-111760000D03*
D11*
X41910000Y-109220000D03*
D12*
X41910000Y-111760000D03*
D11*
X49530000Y-109220000D03*
D12*
X49530000Y-111760000D03*
D11*
X48260000Y-94615000D03*
D12*
X48260000Y-92075000D03*
D11*
X44450000Y-94615000D03*
D12*
X44450000Y-92075000D03*
D11*
X52070000Y-94615000D03*
D12*
X52070000Y-92075000D03*
D11*
X55880000Y-94615000D03*
D12*
X55880000Y-92075000D03*
D11*
X37465000Y-94615000D03*
D12*
X37465000Y-92075000D03*
D11*
X41275000Y-94615000D03*
D12*
X41275000Y-92075000D03*
D11*
X142240000Y-74295000D03*
X147240000Y-74295000D03*
D34*
X115570000Y-49530000D03*
D35*
X120570000Y-49530000D03*
D29*
X90170000Y-46990000D03*
D40*
X90170000Y-49530000D03*
D29*
X127000000Y-68580000D03*
D40*
X124460000Y-68580000D03*
D29*
X135890000Y-86868000D03*
D40*
X135890000Y-84328000D03*
D17*
X135890000Y-121920000D03*
D18*
X135890000Y-124460000D03*
X135890000Y-127000000D03*
X135890000Y-129540000D03*
X135890000Y-132080000D03*
X135890000Y-134620000D03*
D13*
X142240000Y-119380000D03*
D14*
X149860000Y-137160000D03*
X142240000Y-121920000D03*
X149860000Y-134620000D03*
X142240000Y-124460000D03*
X149860000Y-132080000D03*
X142240000Y-127000000D03*
X149860000Y-129540000D03*
X142240000Y-129540000D03*
X149860000Y-127000000D03*
X142240000Y-132080000D03*
X149860000Y-124460000D03*
X142240000Y-134620000D03*
X149860000Y-121920000D03*
X142240000Y-137160000D03*
X149860000Y-119380000D03*
D13*
X165100000Y-119380000D03*
D14*
X172720000Y-137160000D03*
X165100000Y-121920000D03*
X172720000Y-134620000D03*
X165100000Y-124460000D03*
X172720000Y-132080000D03*
X165100000Y-127000000D03*
X172720000Y-129540000D03*
X165100000Y-129540000D03*
X172720000Y-127000000D03*
X165100000Y-132080000D03*
X172720000Y-124460000D03*
X165100000Y-134620000D03*
X172720000Y-121920000D03*
X165100000Y-137160000D03*
X172720000Y-119380000D03*
D17*
X99060000Y-119380000D03*
D18*
X99060000Y-121920000D03*
X99060000Y-124460000D03*
X99060000Y-127000000D03*
X99060000Y-129540000D03*
X99060000Y-132080000D03*
X99060000Y-134620000D03*
X99060000Y-137160000D03*
D17*
X160020000Y-121920000D03*
D18*
X160020000Y-124460000D03*
X160020000Y-127000000D03*
X160020000Y-129540000D03*
X160020000Y-132080000D03*
X160020000Y-134620000D03*
D17*
X86360000Y-86360000D03*
D18*
X86360000Y-88900000D03*
X86360000Y-91440000D03*
X86360000Y-93980000D03*
X86360000Y-96520000D03*
X86360000Y-99060000D03*
X86360000Y-101600000D03*
X86360000Y-104140000D03*
X86360000Y-106680000D03*
X86360000Y-109220000D03*
X86360000Y-111760000D03*
X86360000Y-114300000D03*
X86360000Y-116840000D03*
X86360000Y-119380000D03*
X86360000Y-121920000D03*
D17*
X88900000Y-86360000D03*
D18*
X88900000Y-88900000D03*
X88900000Y-91440000D03*
X88900000Y-93980000D03*
X88900000Y-96520000D03*
X88900000Y-99060000D03*
X88900000Y-101600000D03*
X88900000Y-104140000D03*
X88900000Y-106680000D03*
X88900000Y-109220000D03*
X88900000Y-111760000D03*
X88900000Y-114300000D03*
X88900000Y-116840000D03*
X88900000Y-119380000D03*
X88900000Y-121920000D03*
D17*
X93980000Y-60960000D03*
D18*
X93980000Y-63500000D03*
X93980000Y-66040000D03*
X93980000Y-68580000D03*
X93980000Y-71120000D03*
X93980000Y-73660000D03*
X93980000Y-76200000D03*
X93980000Y-78740000D03*
X93980000Y-81280000D03*
X93980000Y-83820000D03*
X93980000Y-86360000D03*
X93980000Y-88900000D03*
X93980000Y-91440000D03*
X93980000Y-93980000D03*
X93980000Y-96520000D03*
X93980000Y-99060000D03*
X93980000Y-101600000D03*
X93980000Y-104140000D03*
X93980000Y-106680000D03*
X93980000Y-109220000D03*
X93980000Y-111760000D03*
X93980000Y-114300000D03*
X93980000Y-116840000D03*
X93980000Y-119380000D03*
X93980000Y-121920000D03*
X93980000Y-124460000D03*
X93980000Y-127000000D03*
X93980000Y-129540000D03*
X93980000Y-132080000D03*
X93980000Y-134620000D03*
D17*
X93980000Y-58420000D03*
D18*
X96520000Y-58420000D03*
X99060000Y-58420000D03*
X101600000Y-58420000D03*
X104140000Y-58420000D03*
X106680000Y-58420000D03*
X109220000Y-58420000D03*
X111760000Y-58420000D03*
X114300000Y-58420000D03*
X116840000Y-58420000D03*
X119380000Y-58420000D03*
X121920000Y-58420000D03*
D17*
X35560000Y-45720000D03*
D18*
X35560000Y-48260000D03*
X35560000Y-50800000D03*
X35560000Y-53340000D03*
X35560000Y-55880000D03*
X35560000Y-58420000D03*
X35560000Y-60960000D03*
X35560000Y-63500000D03*
X35560000Y-66040000D03*
X35560000Y-68580000D03*
X35560000Y-71120000D03*
X35560000Y-73660000D03*
D17*
X53340000Y-45720000D03*
D18*
X55880000Y-45720000D03*
X58420000Y-45720000D03*
X60960000Y-45720000D03*
X63500000Y-45720000D03*
X66040000Y-45720000D03*
X68580000Y-45720000D03*
X71120000Y-45720000D03*
X73660000Y-45720000D03*
X76200000Y-45720000D03*
X78740000Y-45720000D03*
X81280000Y-45720000D03*
D17*
X99060000Y-140970000D03*
D18*
X101600000Y-140970000D03*
X104140000Y-140970000D03*
X106680000Y-140970000D03*
X109220000Y-140970000D03*
X111760000Y-140970000D03*
X114300000Y-140970000D03*
X116840000Y-140970000D03*
X119380000Y-140970000D03*
X121920000Y-140970000D03*
X124460000Y-140970000D03*
X127000000Y-140970000D03*
X129540000Y-140970000D03*
X132080000Y-140970000D03*
X134620000Y-140970000D03*
X137160000Y-140970000D03*
X139700000Y-140970000D03*
X142240000Y-140970000D03*
X144780000Y-140970000D03*
X147320000Y-140970000D03*
X149860000Y-140970000D03*
X152400000Y-140970000D03*
X154940000Y-140970000D03*
X157480000Y-140970000D03*
X160020000Y-140970000D03*
X162560000Y-140970000D03*
X165100000Y-140970000D03*
X167640000Y-140970000D03*
X170180000Y-140970000D03*
X172720000Y-140970000D03*
D17*
X27940000Y-59690000D03*
D18*
X27940000Y-62230000D03*
X27940000Y-64770000D03*
X27940000Y-67310000D03*
X27940000Y-69850000D03*
X27940000Y-72390000D03*
X27940000Y-74930000D03*
X27940000Y-77470000D03*
X27940000Y-80010000D03*
X27940000Y-82550000D03*
X27940000Y-85090000D03*
X27940000Y-87630000D03*
X27940000Y-90170000D03*
X27940000Y-92710000D03*
X27940000Y-95250000D03*
D17*
X99060000Y-60960000D03*
D18*
X99060000Y-63500000D03*
X99060000Y-66040000D03*
X99060000Y-68580000D03*
X99060000Y-71120000D03*
X99060000Y-73660000D03*
X99060000Y-76200000D03*
X99060000Y-78740000D03*
X99060000Y-81280000D03*
X99060000Y-83820000D03*
X99060000Y-86360000D03*
X99060000Y-88900000D03*
X99060000Y-91440000D03*
X99060000Y-93980000D03*
X99060000Y-96520000D03*
D17*
X41275000Y-86360000D03*
D18*
X43815000Y-86360000D03*
X46355000Y-86360000D03*
X48895000Y-86360000D03*
X51435000Y-86360000D03*
X53975000Y-86360000D03*
X56515000Y-86360000D03*
X59055000Y-86360000D03*
X61595000Y-86360000D03*
X64135000Y-86360000D03*
X66675000Y-86360000D03*
X69215000Y-86360000D03*
X71755000Y-86360000D03*
X74295000Y-86360000D03*
X76835000Y-86360000D03*
D17*
X96520000Y-60960000D03*
D18*
X96520000Y-63500000D03*
X96520000Y-66040000D03*
X96520000Y-68580000D03*
X96520000Y-71120000D03*
X96520000Y-73660000D03*
X96520000Y-76200000D03*
X96520000Y-78740000D03*
X96520000Y-81280000D03*
X96520000Y-83820000D03*
X96520000Y-86360000D03*
X96520000Y-88900000D03*
X96520000Y-91440000D03*
X96520000Y-93980000D03*
X96520000Y-96520000D03*
D17*
X30480000Y-59690000D03*
D18*
X30480000Y-62230000D03*
X30480000Y-64770000D03*
X30480000Y-67310000D03*
X30480000Y-69850000D03*
X30480000Y-72390000D03*
X30480000Y-74930000D03*
X30480000Y-77470000D03*
X30480000Y-80010000D03*
X30480000Y-82550000D03*
X30480000Y-85090000D03*
X30480000Y-87630000D03*
X30480000Y-90170000D03*
X30480000Y-92710000D03*
X30480000Y-95250000D03*
D17*
X128270000Y-119380000D03*
D18*
X128270000Y-121920000D03*
X128270000Y-124460000D03*
X128270000Y-127000000D03*
X128270000Y-129540000D03*
X128270000Y-132080000D03*
X128270000Y-134620000D03*
X128270000Y-137160000D03*
D17*
X143510000Y-114300000D03*
D18*
X146050000Y-114300000D03*
X148590000Y-114300000D03*
X151130000Y-114300000D03*
X153670000Y-114300000D03*
X156210000Y-114300000D03*
X158750000Y-114300000D03*
X161290000Y-114300000D03*
X163830000Y-114300000D03*
X166370000Y-114300000D03*
X168910000Y-114300000D03*
X171450000Y-114300000D03*
D13*
X104140000Y-119380000D03*
D14*
X111760000Y-137160000D03*
X104140000Y-121920000D03*
X111760000Y-134620000D03*
X104140000Y-124460000D03*
X111760000Y-132080000D03*
X104140000Y-127000000D03*
X111760000Y-129540000D03*
X104140000Y-129540000D03*
X111760000Y-127000000D03*
X104140000Y-132080000D03*
X111760000Y-124460000D03*
X104140000Y-134620000D03*
X111760000Y-121920000D03*
X104140000Y-137160000D03*
X111760000Y-119380000D03*
D13*
X115570000Y-119380000D03*
D14*
X123190000Y-137160000D03*
X115570000Y-121920000D03*
X123190000Y-134620000D03*
X115570000Y-124460000D03*
X123190000Y-132080000D03*
X115570000Y-127000000D03*
X123190000Y-129540000D03*
X115570000Y-129540000D03*
X123190000Y-127000000D03*
X115570000Y-132080000D03*
X123190000Y-124460000D03*
X115570000Y-134620000D03*
X123190000Y-121920000D03*
X115570000Y-137160000D03*
X123190000Y-119380000D03*
D13*
X95250000Y-46990000D03*
D14*
X102870000Y-52070000D03*
X95250000Y-49530000D03*
X102870000Y-49530000D03*
X95250000Y-52070000D03*
X102870000Y-46990000D03*
D15*
X134620000Y-72390000D03*
D16*
X139700000Y-64770000D03*
X137160000Y-72390000D03*
X137160000Y-64770000D03*
X139700000Y-72390000D03*
X134620000Y-64770000D03*
D13*
X135890000Y-91440000D03*
D14*
X143510000Y-96520000D03*
X135890000Y-93980000D03*
X143510000Y-93980000D03*
X135890000Y-96520000D03*
X143510000Y-91440000D03*
D15*
X39370000Y-105410000D03*
D16*
X54610000Y-97790000D03*
X41910000Y-105410000D03*
X52070000Y-97790000D03*
X44450000Y-105410000D03*
X49530000Y-97790000D03*
X46990000Y-105410000D03*
X46990000Y-97790000D03*
X49530000Y-105410000D03*
X44450000Y-97790000D03*
X52070000Y-105410000D03*
X41910000Y-97790000D03*
X54610000Y-105410000D03*
X39370000Y-97790000D03*
D11*
X108585000Y-82550000D03*
X103585000Y-82550000D03*
X118110000Y-66040000D03*
X118110000Y-61040000D03*
X107442000Y-86741000D03*
X107442000Y-91741000D03*
D17*
X102235000Y-70485000D03*
D18*
X102235000Y-73025000D03*
X102235000Y-75565000D03*
X102235000Y-78105000D03*
D17*
X130810000Y-76200000D03*
D18*
X130810000Y-78740000D03*
X130810000Y-81280000D03*
X130810000Y-83820000D03*
D11*
X106680000Y-73025000D03*
D12*
X109220000Y-73025000D03*
D11*
X106680000Y-76835000D03*
D12*
X109220000Y-76835000D03*
D11*
X115570000Y-73025000D03*
D12*
X118110000Y-73025000D03*
D11*
X102870000Y-88900000D03*
D12*
X102870000Y-86360000D03*
D11*
X127635000Y-95250000D03*
X127635000Y-90250000D03*
X118110000Y-95504000D03*
X113110000Y-95504000D03*
X121920000Y-95250000D03*
D12*
X121920000Y-92710000D03*
D11*
X122301000Y-87884000D03*
D12*
X124841000Y-87884000D03*
D11*
X125095000Y-79883000D03*
X125095000Y-74883000D03*
X125730000Y-84836000D03*
D12*
X128270000Y-84836000D03*
D17*
X110490000Y-104775000D03*
D18*
X110490000Y-107315000D03*
X110490000Y-109855000D03*
X110490000Y-112395000D03*
D17*
X149860000Y-109855000D03*
D18*
X149860000Y-107315000D03*
X149860000Y-104775000D03*
X149860000Y-102235000D03*
D11*
X125095000Y-116205000D03*
D12*
X127635000Y-116205000D03*
D11*
X106680000Y-114300000D03*
D12*
X104140000Y-114300000D03*
D11*
X113665000Y-103505000D03*
D12*
X116205000Y-103505000D03*
D11*
X144780000Y-111125000D03*
D12*
X142240000Y-111125000D03*
D15*
X122555000Y-113030000D03*
D16*
X137795000Y-105410000D03*
X125095000Y-113030000D03*
X135255000Y-105410000D03*
X127635000Y-113030000D03*
X132715000Y-105410000D03*
X130175000Y-113030000D03*
X130175000Y-105410000D03*
X132715000Y-113030000D03*
X127635000Y-105410000D03*
X135255000Y-113030000D03*
X125095000Y-105410000D03*
X137795000Y-113030000D03*
X122555000Y-105410000D03*
D11*
X111760000Y-69850000D03*
X116760000Y-69850000D03*
X132715000Y-116205000D03*
D12*
X130175000Y-116205000D03*
D11*
X106680000Y-110490000D03*
D12*
X104140000Y-110490000D03*
D11*
X113665000Y-107315000D03*
D12*
X116205000Y-107315000D03*
D11*
X144780000Y-107950000D03*
D12*
X142240000Y-107950000D03*
D11*
X132715000Y-101600000D03*
D12*
X130175000Y-101600000D03*
D11*
X106680000Y-106680000D03*
D12*
X104140000Y-106680000D03*
D11*
X113665000Y-111125000D03*
D12*
X116205000Y-111125000D03*
D11*
X144780000Y-104775000D03*
D12*
X142240000Y-104775000D03*
D11*
X106680000Y-102870000D03*
D12*
X104140000Y-102870000D03*
D11*
X113665000Y-114935000D03*
D12*
X116205000Y-114935000D03*
D11*
X144780000Y-101600000D03*
D12*
X142240000Y-101600000D03*
D17*
X101600000Y-112395000D03*
D18*
X101600000Y-109855000D03*
X101600000Y-107315000D03*
X101600000Y-104775000D03*
X101600000Y-102235000D03*
D41*
X97790000Y-115570000D03*
D42*
X31750000Y-120015000D03*
X27940000Y-128270000D03*
D41*
X123317000Y-82677000D03*
X99060000Y-104775000D03*
X109220000Y-101600000D03*
D42*
X88900000Y-62585600D03*
D41*
X104775000Y-100965000D03*
X97790000Y-101600000D03*
D43*
X113538000Y-66802000D03*
X101854000Y-66802000D03*
D41*
X40640000Y-102235000D03*
X146558000Y-45466000D03*
D43*
X152400000Y-93980000D03*
D41*
X160147000Y-76073000D03*
X47498000Y-54991000D03*
X52705000Y-69469000D03*
X67056000Y-103886000D03*
X67056000Y-101854000D03*
X72136000Y-91694000D03*
X81026000Y-68834000D03*
X88011000Y-69850000D03*
X105918000Y-64262000D03*
X110871000Y-61214000D03*
X152400000Y-72644000D03*
X140081000Y-67183000D03*
X134239000Y-67183000D03*
X131953000Y-64897000D03*
X119888000Y-61087000D03*
X116586000Y-55753000D03*
X89408000Y-53213000D03*
X85344000Y-55245000D03*
X87249000Y-65913000D03*
X81407000Y-73533000D03*
X68834000Y-96393000D03*
X66548000Y-95885000D03*
X60452000Y-99187000D03*
X57150000Y-106426000D03*
X52070000Y-101854000D03*
X69850000Y-101600000D03*
X102870000Y-96393000D03*
X69469000Y-92710000D03*
X101981000Y-91694000D03*
X33020000Y-108585000D03*
X106299000Y-85471000D03*
X106553000Y-93218000D03*
X106426000Y-90297000D03*
X106299000Y-81915000D03*
X108458000Y-84582000D03*
X68707000Y-49784000D03*
X61976000Y-51308000D03*
X55626000Y-49530000D03*
X72771000Y-63754000D03*
X78105000Y-63373000D03*
X43180000Y-57277000D03*
X61595000Y-104013000D03*
X62103000Y-99187000D03*
X61722000Y-107188000D03*
X155067000Y-102108000D03*
X133731000Y-110744000D03*
X136017000Y-107442000D03*
X51181000Y-71628000D03*
X46736000Y-74041000D03*
X46863000Y-57531000D03*
X40640000Y-58039000D03*
X75565000Y-113411000D03*
X72136000Y-108458000D03*
X36830000Y-102362000D03*
X33020000Y-101219000D03*
X30226000Y-108712000D03*
X30226000Y-105410000D03*
X43053000Y-100838000D03*
X46609000Y-100838000D03*
X50673000Y-100838000D03*
X56769000Y-97917000D03*
X75311000Y-88773000D03*
X71120000Y-88773000D03*
X67056000Y-90170000D03*
X65659000Y-91821000D03*
X65786000Y-93853000D03*
X115697000Y-62484000D03*
D44*
X89535000Y-59055000D03*
X153670000Y-54610000D03*
X161290000Y-68580000D03*
X167640000Y-68580000D03*
D41*
X112014000Y-52070000D03*
X73406000Y-67691000D03*
X90424000Y-67056000D03*
X101727000Y-65405000D03*
X119761000Y-66294000D03*
X128143000Y-75184000D03*
X155879800Y-62712600D03*
X113030000Y-56769000D03*
X95885000Y-54610000D03*
X97282000Y-55753000D03*
X70485000Y-58547000D03*
X45085000Y-62357000D03*
X45085000Y-59690000D03*
X50165000Y-95250000D03*
X46355000Y-95250000D03*
X64389000Y-91694000D03*
X64389000Y-93726000D03*
X59563000Y-93726000D03*
X53213000Y-89154000D03*
X32385000Y-127000000D03*
X77470000Y-115570000D03*
X82550000Y-121285000D03*
X80645000Y-112395000D03*
X79375000Y-121285000D03*
X78105000Y-112395000D03*
X29845000Y-118110000D03*
X73025000Y-112395000D03*
X45720000Y-116205000D03*
X146050000Y-134620000D03*
X157353000Y-131826000D03*
X167513000Y-135128000D03*
X175260000Y-135001000D03*
X108280200Y-132080000D03*
X108077000Y-138023600D03*
X113284000Y-139192000D03*
X117983000Y-124968000D03*
X109321600Y-129692400D03*
X120269000Y-130810000D03*
X154940000Y-128270000D03*
X156210000Y-121920000D03*
X157353000Y-126746000D03*
X121920000Y-85471000D03*
X116332000Y-83947000D03*
X106426000Y-83693000D03*
X109093000Y-64389000D03*
X121920000Y-83947000D03*
X116840000Y-91567000D03*
X149606000Y-77216000D03*
X115697000Y-81661000D03*
X114554000Y-87630000D03*
X108839000Y-90805000D03*
X107696000Y-94107000D03*
X110744000Y-73914000D03*
X70866000Y-96012000D03*
X59436000Y-100584000D03*
X138303000Y-96393000D03*
X143891000Y-74422000D03*
X124968000Y-108712000D03*
X120142000Y-112776000D03*
X126746000Y-109728000D03*
X135763000Y-101727000D03*
X110871000Y-115316000D03*
X135128000Y-115570000D03*
X118872000Y-108458000D03*
X135128000Y-102870000D03*
X122682000Y-101727000D03*
X120269000Y-102870000D03*
D45*
X115570000Y-121920000D02*
X114300000Y-123190000D01*
X114300000Y-123190000D02*
X110490000Y-123190000D01*
X110490000Y-123190000D02*
X106680000Y-127000000D01*
X106680000Y-127000000D02*
X106680000Y-132080000D01*
X106680000Y-132080000D02*
X107950000Y-133350000D01*
X107950000Y-133350000D02*
X115570000Y-133350000D01*
X115570000Y-133350000D02*
X115570000Y-134620000D01*
X115570000Y-134620000D02*
X120650000Y-134620000D01*
X120650000Y-134620000D02*
X123190000Y-137160000D01*
X115570000Y-121920000D02*
X115570000Y-119380000D01*
X111760000Y-137160000D02*
X106680000Y-137160000D01*
X106680000Y-137160000D02*
X104140000Y-134620000D01*
X88900000Y-119380000D02*
X91440000Y-119380000D01*
X91440000Y-119380000D02*
X92710000Y-118110000D01*
X92710000Y-118110000D02*
X102870000Y-118110000D01*
X102870000Y-118110000D02*
X104140000Y-119380000D01*
X115570000Y-134620000D02*
X114300000Y-134620000D01*
X114300000Y-134620000D02*
X111760000Y-137160000D01*
X104140000Y-119380000D02*
X104140000Y-121920000D01*
X123190000Y-121920000D02*
X123444000Y-121666000D01*
X142240000Y-119380000D02*
X142494000Y-119126000D01*
D46*
X123190000Y-121920000D02*
X123444000Y-121666000D01*
X142240000Y-119380000D02*
X142494000Y-119126000D01*
D47*
X123190000Y-121920000D02*
X123444000Y-121666000D01*
X142240000Y-119380000D02*
X142494000Y-119126000D01*
D45*
X97790000Y-115570000D02*
X92710000Y-115570000D01*
X92710000Y-115570000D02*
X90170000Y-118110000D01*
X90170000Y-118110000D02*
X87630000Y-118110000D01*
X87630000Y-118110000D02*
X86360000Y-119380000D01*
D48*
X31115000Y-120650000D02*
X31750000Y-120015000D01*
X31115000Y-125095000D02*
X31115000Y-120650000D01*
X27940000Y-128270000D02*
X31115000Y-125095000D01*
D45*
X51515000Y-88900000D02*
X51515000Y-89030800D01*
X51515000Y-89030800D02*
X53975000Y-91490800D01*
X44450000Y-99085400D02*
X44450000Y-97790000D01*
X45161200Y-99796600D02*
X44450000Y-99085400D01*
X49885600Y-99796600D02*
X45161200Y-99796600D01*
X50825400Y-98856800D02*
X49885600Y-99796600D01*
X50825400Y-96621600D02*
X50825400Y-98856800D01*
X51511200Y-95935800D02*
X50825400Y-96621600D01*
X52578000Y-95935800D02*
X51511200Y-95935800D01*
X53975000Y-94538800D02*
X52578000Y-95935800D01*
X53975000Y-91490800D02*
X53975000Y-94538800D01*
X51515000Y-88900000D02*
X51562000Y-88900000D01*
X44450000Y-97917000D02*
X44450000Y-97790000D01*
X51515000Y-88900000D02*
X51562000Y-88900000D01*
X44450000Y-97917000D02*
X44450000Y-97790000D01*
X51515000Y-88900000D02*
X51562000Y-88900000D01*
X44450000Y-97917000D02*
X44450000Y-97790000D01*
X51515000Y-88900000D02*
X51562000Y-88900000D01*
X44450000Y-97917000D02*
X44450000Y-97790000D01*
X51515000Y-88900000D02*
X51435000Y-88900000D01*
X53340000Y-83820000D02*
X53340000Y-84455000D01*
X53340000Y-84455000D02*
X52705000Y-85090000D01*
X52705000Y-87710000D02*
X51515000Y-88900000D01*
X52705000Y-85090000D02*
X52705000Y-87710000D01*
D46*
X51562000Y-88773000D02*
X51562000Y-88900000D01*
X51562000Y-88900000D02*
X51515000Y-88900000D01*
X132080000Y-80010000D02*
X135890000Y-83820000D01*
X129540000Y-80010000D02*
X132080000Y-80010000D01*
X126873000Y-82677000D02*
X129540000Y-80010000D01*
X123317000Y-82677000D02*
X126873000Y-82677000D01*
D45*
X119380000Y-110871000D02*
X129921000Y-110871000D01*
X130175000Y-111125000D02*
X130175000Y-113030000D01*
X129921000Y-110871000D02*
X130175000Y-111125000D01*
X119380000Y-110871000D02*
X118999000Y-110744000D01*
X118999000Y-110744000D02*
X117475000Y-109220000D01*
X100330000Y-97790000D02*
X99060000Y-96520000D01*
X100330000Y-100330000D02*
X100330000Y-97790000D01*
X99060000Y-101600000D02*
X100330000Y-100330000D01*
X99060000Y-104775000D02*
X99060000Y-101600000D01*
X116840000Y-101600000D02*
X109220000Y-101600000D01*
X117475000Y-102235000D02*
X116840000Y-101600000D01*
X117475000Y-109220000D02*
X117475000Y-102235000D01*
D46*
X135890000Y-83820000D02*
X135890000Y-84328000D01*
D45*
X119380000Y-110871000D02*
X119126000Y-110363000D01*
D49*
X111760000Y-69850000D02*
X111760000Y-71120000D01*
D46*
X113030000Y-83820000D02*
X111760000Y-83820000D01*
D49*
X114300000Y-82550000D02*
X113030000Y-83820000D01*
X114300000Y-73660000D02*
X114300000Y-82550000D01*
X111760000Y-71120000D02*
X114300000Y-73660000D01*
D45*
X111760000Y-83820000D02*
X111887000Y-83820000D01*
X97790000Y-62230000D02*
X99060000Y-60960000D01*
X92710000Y-62230000D02*
X97790000Y-62230000D01*
X92329000Y-62611000D02*
X92710000Y-62230000D01*
X88900000Y-62585600D02*
X92329000Y-62611000D01*
X99060000Y-60960000D02*
X99695000Y-60960000D01*
X99695000Y-60960000D02*
X100330000Y-60325000D01*
X91440000Y-49530000D02*
X90170000Y-49530000D01*
X92710000Y-48260000D02*
X91440000Y-49530000D01*
X99060000Y-48260000D02*
X92710000Y-48260000D01*
X100330000Y-49530000D02*
X99060000Y-48260000D01*
X100330000Y-60325000D02*
X100330000Y-49530000D01*
X27940000Y-62230000D02*
X29210000Y-60960000D01*
X29210000Y-60960000D02*
X31750000Y-60960000D01*
X31750000Y-60960000D02*
X33020000Y-62230000D01*
X33020000Y-62230000D02*
X36830000Y-62230000D01*
X36830000Y-62230000D02*
X38100000Y-60960000D01*
X38100000Y-60960000D02*
X50800000Y-60960000D01*
D46*
X147320000Y-77470000D02*
X147955000Y-77470000D01*
X147955000Y-77470000D02*
X149860000Y-75565000D01*
X149860000Y-75565000D02*
X149800000Y-75580000D01*
D45*
X119253000Y-105744000D02*
X119253000Y-106553000D01*
X129667000Y-107061000D02*
X130175000Y-106553000D01*
X119761000Y-107061000D02*
X129667000Y-107061000D01*
X119253000Y-106553000D02*
X119761000Y-107061000D01*
X130175000Y-106553000D02*
X130175000Y-105410000D01*
X119253000Y-101092000D02*
X118745000Y-100584000D01*
X118745000Y-100584000D02*
X105156000Y-100584000D01*
X105156000Y-100584000D02*
X104775000Y-100965000D01*
X119253000Y-105744000D02*
X119253000Y-101092000D01*
X97790000Y-97790000D02*
X96520000Y-96520000D01*
X97790000Y-99060000D02*
X97790000Y-97790000D01*
X97790000Y-101600000D02*
X97790000Y-99060000D01*
X96520000Y-96520000D02*
X96266000Y-96520000D01*
X119380000Y-83820000D02*
X120777000Y-82423000D01*
X120777000Y-82423000D02*
X120904000Y-82423000D01*
X120904000Y-82423000D02*
X122301000Y-81153000D01*
X122301000Y-81153000D02*
X125603000Y-81153000D01*
X125603000Y-81153000D02*
X125730000Y-81026000D01*
X125730000Y-81026000D02*
X125857000Y-80899000D01*
X125857000Y-80899000D02*
X129286000Y-77470000D01*
X129286000Y-77470000D02*
X142320000Y-77470000D01*
X96520000Y-68580000D02*
X97790000Y-67310000D01*
X113538000Y-66802000D02*
X116586000Y-69850000D01*
X101346000Y-67310000D02*
X101854000Y-66802000D01*
X97790000Y-67310000D02*
X101346000Y-67310000D01*
X116586000Y-69850000D02*
X116760000Y-69850000D01*
D49*
X116760000Y-69850000D02*
X116760000Y-71548000D01*
X117856000Y-83820000D02*
X119380000Y-83820000D01*
X116840000Y-82804000D02*
X117856000Y-83820000D01*
X116840000Y-71628000D02*
X116840000Y-82804000D01*
X116760000Y-71548000D02*
X116840000Y-71628000D01*
D45*
X142240000Y-77470000D02*
X142320000Y-77470000D01*
X96520000Y-83820000D02*
X96520000Y-84074000D01*
X95440500Y-85090000D02*
X84963000Y-85090000D01*
X96520000Y-86169500D02*
X95440500Y-85090000D01*
X83693000Y-86360000D02*
X76835000Y-86360000D01*
X84963000Y-85090000D02*
X83693000Y-86360000D01*
X96520000Y-86360000D02*
X96520000Y-86169500D01*
X37385000Y-100330000D02*
X36195000Y-99140000D01*
X38735000Y-100330000D02*
X37385000Y-100330000D01*
X40640000Y-102235000D02*
X38735000Y-100330000D01*
X30480000Y-59690000D02*
X33020000Y-57150000D01*
X33020000Y-57150000D02*
X36830000Y-57150000D01*
X36830000Y-57150000D02*
X37973000Y-56007000D01*
X37973000Y-56007000D02*
X50800000Y-56007000D01*
X50800000Y-56007000D02*
X50800000Y-55960000D01*
X142320000Y-77470000D02*
X142367000Y-77470000D01*
X142367000Y-77470000D02*
X144145000Y-75692000D01*
X144145000Y-75692000D02*
X147828000Y-75692000D01*
X147828000Y-75692000D02*
X147955000Y-75565000D01*
X147955000Y-75565000D02*
X148082000Y-75438000D01*
X148082000Y-75438000D02*
X148463000Y-74930000D01*
X148463000Y-74930000D02*
X149800000Y-74930000D01*
X30480000Y-64770000D02*
X30480000Y-64833500D01*
X30480000Y-64833500D02*
X29273500Y-66040000D01*
X25400000Y-66040000D02*
X24130000Y-64770000D01*
X29273500Y-66040000D02*
X25400000Y-66040000D01*
X137160000Y-48260000D02*
X137160000Y-49911000D01*
X143510000Y-49606200D02*
X143510000Y-48260000D01*
X142367000Y-50749200D02*
X143510000Y-49606200D01*
X137998200Y-50749200D02*
X142367000Y-50749200D01*
X137160000Y-49911000D02*
X137998200Y-50749200D01*
D49*
X137160000Y-48260000D02*
X134683500Y-45605700D01*
X134683500Y-45605700D02*
X130441700Y-45631100D01*
X130441700Y-45631100D02*
X129616200Y-47015400D01*
X129616200Y-47015400D02*
X128270000Y-46990000D01*
X146558000Y-45466000D02*
X149352000Y-48260000D01*
X149352000Y-48260000D02*
X151130000Y-48260000D01*
X137160000Y-48260000D02*
X137160000Y-48768000D01*
D47*
X171450000Y-63500000D02*
X170180000Y-64770000D01*
D45*
X170180000Y-64770000D02*
X160020000Y-64770000D01*
X160147000Y-76073000D02*
X158750000Y-77470000D01*
X158750000Y-77470000D02*
X157480000Y-77470000D01*
X74295000Y-88900000D02*
X74295000Y-88138000D01*
X74295000Y-90170000D02*
X74295000Y-88900000D01*
X75565000Y-84455000D02*
X75565000Y-87630000D01*
X75565000Y-84455000D02*
X76200000Y-83820000D01*
X75438000Y-87630000D02*
X75565000Y-87630000D01*
X75184000Y-87884000D02*
X75438000Y-87630000D01*
X74549000Y-87884000D02*
X75184000Y-87884000D01*
X74295000Y-88138000D02*
X74549000Y-87884000D01*
X49530000Y-52070000D02*
X49149000Y-52070000D01*
X49149000Y-52070000D02*
X47498000Y-53721000D01*
X47498000Y-53721000D02*
X47498000Y-54991000D01*
X52705000Y-69469000D02*
X53340000Y-70104000D01*
X53340000Y-70104000D02*
X58166000Y-70104000D01*
X58166000Y-70104000D02*
X59690000Y-68580000D01*
X67310000Y-113030000D02*
X67056000Y-112776000D01*
X67056000Y-112776000D02*
X67056000Y-103886000D01*
X67056000Y-101854000D02*
X67056000Y-101854000D01*
X67056000Y-101854000D02*
X67056000Y-98298000D01*
X67056000Y-98298000D02*
X62484000Y-93726000D01*
X62484000Y-93726000D02*
X62484000Y-89789000D01*
X62484000Y-89789000D02*
X62357000Y-89662000D01*
X62357000Y-89662000D02*
X61976000Y-89154000D01*
X61976000Y-89154000D02*
X60325000Y-87630000D01*
X60325000Y-87630000D02*
X60325000Y-85090000D01*
X60325000Y-85090000D02*
X59690000Y-85090000D01*
D50*
X59690000Y-85090000D02*
X59690000Y-68580000D01*
D45*
X59690000Y-62230000D02*
X59690000Y-66040000D01*
D46*
X142240000Y-71882000D02*
X147066000Y-71882000D01*
X140716000Y-70739000D02*
X141859000Y-71882000D01*
X141859000Y-71882000D02*
X142240000Y-71882000D01*
X134112000Y-70739000D02*
X140716000Y-70739000D01*
X151638000Y-74295000D02*
X151384000Y-74295000D01*
X150749000Y-73406000D02*
X151638000Y-74295000D01*
X148590000Y-73406000D02*
X150749000Y-73406000D01*
X147066000Y-71882000D02*
X148590000Y-73406000D01*
X132715000Y-70993000D02*
X132334000Y-71374000D01*
X122174000Y-66929000D02*
X128016000Y-66929000D01*
X120142000Y-65024000D02*
X122174000Y-66929000D01*
X119634000Y-64897000D02*
X120142000Y-65024000D01*
X132969000Y-70739000D02*
X132715000Y-70993000D01*
X132969000Y-70739000D02*
X134112000Y-70739000D01*
X128524000Y-67310000D02*
X128016000Y-66929000D01*
X129032000Y-67818000D02*
X128524000Y-67310000D01*
X129032000Y-70358000D02*
X129032000Y-67818000D01*
X130048000Y-71374000D02*
X129032000Y-70358000D01*
X132334000Y-71374000D02*
X130048000Y-71374000D01*
X72136000Y-91694000D02*
X73025000Y-90805000D01*
X73025000Y-90805000D02*
X73025000Y-85090000D01*
X73025000Y-85090000D02*
X74930000Y-85090000D01*
X74930000Y-85090000D02*
X74930000Y-74930000D01*
X74930000Y-74930000D02*
X81026000Y-68834000D01*
X88011000Y-69850000D02*
X100330000Y-69850000D01*
X100330000Y-69850000D02*
X105918000Y-64262000D01*
X110871000Y-61214000D02*
X114427000Y-64770000D01*
X114427000Y-64770000D02*
X118491000Y-64770000D01*
X118491000Y-64770000D02*
X119507000Y-64897000D01*
X119507000Y-64897000D02*
X119634000Y-64897000D01*
X119634000Y-64897000D02*
X119634000Y-64897000D01*
X133985000Y-70739000D02*
X134112000Y-70739000D01*
X152460000Y-74280000D02*
X152400000Y-74295000D01*
X152400000Y-74295000D02*
X151384000Y-74295000D01*
X151384000Y-74295000D02*
X151130000Y-74549000D01*
X151130000Y-74549000D02*
X151130000Y-80010000D01*
X152400000Y-71374000D02*
X152400000Y-70231000D01*
X152400000Y-71374000D02*
X152400000Y-72644000D01*
X140081000Y-67183000D02*
X141478000Y-67183000D01*
X131953000Y-64897000D02*
X134239000Y-67183000D01*
X118491000Y-59690000D02*
X119888000Y-61087000D01*
X118110000Y-59690000D02*
X118491000Y-59690000D01*
X118110000Y-57150000D02*
X118110000Y-59690000D01*
X117983000Y-57150000D02*
X118110000Y-57150000D01*
X116586000Y-55753000D02*
X117983000Y-57150000D01*
X87376000Y-55245000D02*
X89408000Y-53213000D01*
X85344000Y-55245000D02*
X87376000Y-55245000D01*
X87249000Y-66421000D02*
X87249000Y-65913000D01*
X82931000Y-70739000D02*
X87249000Y-66421000D01*
X82931000Y-72009000D02*
X82931000Y-70739000D01*
X81407000Y-73533000D02*
X82931000Y-72009000D01*
X68326000Y-95885000D02*
X68834000Y-96393000D01*
X66548000Y-95885000D02*
X68326000Y-95885000D01*
X60452000Y-103124000D02*
X60452000Y-99187000D01*
X57150000Y-106426000D02*
X60452000Y-103124000D01*
X147447000Y-67183000D02*
X141478000Y-67183000D01*
X147701000Y-66929000D02*
X147447000Y-67183000D01*
X149098000Y-66929000D02*
X147701000Y-66929000D01*
X152400000Y-70231000D02*
X149098000Y-66929000D01*
D45*
X45720000Y-111760000D02*
X44450000Y-113030000D01*
X44450000Y-113030000D02*
X38100000Y-113030000D01*
X38100000Y-113030000D02*
X38100000Y-113411000D01*
X67310000Y-62230000D02*
X69850000Y-62230000D01*
X78660000Y-66040000D02*
X78740000Y-66040000D01*
X78740000Y-66040000D02*
X81280000Y-63500000D01*
X81280000Y-63500000D02*
X85090000Y-63500000D01*
D47*
X78660000Y-66040000D02*
X78613000Y-66040000D01*
D45*
X45720000Y-109220000D02*
X48260000Y-111760000D01*
X48260000Y-111760000D02*
X48260000Y-116840000D01*
X44450000Y-105410000D02*
X45720000Y-106680000D01*
X45720000Y-106680000D02*
X45720000Y-109220000D01*
X60960000Y-95250000D02*
X54356000Y-101854000D01*
X54356000Y-101854000D02*
X52070000Y-101854000D01*
X54610000Y-105410000D02*
X58293000Y-109093000D01*
X58293000Y-109093000D02*
X58293000Y-113030000D01*
X58293000Y-113030000D02*
X58340000Y-113030000D01*
X41275000Y-92075000D02*
X41275000Y-91440000D01*
X41275000Y-91440000D02*
X45085000Y-87630000D01*
X45085000Y-87630000D02*
X45085000Y-84455000D01*
X45085000Y-84455000D02*
X45720000Y-83820000D01*
X43180000Y-83820000D02*
X44450000Y-82550000D01*
D50*
X44450000Y-82550000D02*
X46990000Y-82550000D01*
D45*
X46990000Y-82550000D02*
X46990000Y-85090000D01*
X46990000Y-85090000D02*
X47625000Y-85090000D01*
X47625000Y-85090000D02*
X47625000Y-87630000D01*
X47625000Y-87630000D02*
X46990000Y-87630000D01*
X46990000Y-87630000D02*
X46990000Y-89535000D01*
X46990000Y-89535000D02*
X44450000Y-92075000D01*
X54610000Y-66040000D02*
X55880000Y-67310000D01*
X55880000Y-67310000D02*
X60960000Y-67310000D01*
X60960000Y-67310000D02*
X62230000Y-68580000D01*
D50*
X62230000Y-68580000D02*
X62230000Y-85090000D01*
D45*
X62230000Y-85090000D02*
X62865000Y-85090000D01*
X62865000Y-85090000D02*
X62865000Y-87630000D01*
X62865000Y-87630000D02*
X69850000Y-94615000D01*
X69850000Y-94615000D02*
X69850000Y-101600000D01*
X62357000Y-113030000D02*
X62310000Y-113030000D01*
X54610000Y-62230000D02*
X54610000Y-66040000D01*
D46*
X62310000Y-113030000D02*
X62357000Y-113030000D01*
X62357000Y-113030000D02*
X61849000Y-112522000D01*
D45*
X41910000Y-109220000D02*
X41910000Y-105410000D01*
D47*
X33100000Y-113030000D02*
X33147000Y-113030000D01*
D45*
X33147000Y-113030000D02*
X36957000Y-109220000D01*
X36957000Y-109220000D02*
X41910000Y-109220000D01*
D49*
X139700000Y-48260000D02*
X139700000Y-47815500D01*
X139700000Y-47815500D02*
X140906500Y-46609000D01*
X144399000Y-46609000D02*
X146050000Y-48260000D01*
X140906500Y-46609000D02*
X144399000Y-46609000D01*
X146050000Y-48260000D02*
X146050000Y-49593500D01*
X156210000Y-49974500D02*
X156210000Y-48260000D01*
X155511500Y-50673000D02*
X156210000Y-49974500D01*
X147129500Y-50673000D02*
X155511500Y-50673000D01*
X146050000Y-49593500D02*
X147129500Y-50673000D01*
X156210000Y-48260000D02*
X156210000Y-49022000D01*
X146304000Y-48514000D02*
X146050000Y-48260000D01*
X146050000Y-48260000D02*
X146050000Y-48006000D01*
D46*
X110490000Y-55880000D02*
X109728000Y-55880000D01*
D49*
X110490000Y-55880000D02*
X110490000Y-46990000D01*
X110490000Y-47625000D02*
X110490000Y-46990000D01*
X139580620Y-59690000D02*
X139700000Y-59690000D01*
X148590000Y-64770000D02*
X139700000Y-64770000D01*
D45*
X143510000Y-82550000D02*
X143510000Y-85369400D01*
X141325600Y-96520000D02*
X143510000Y-96520000D01*
X139750800Y-94945200D02*
X141325600Y-96520000D01*
X139750800Y-89128600D02*
X139750800Y-94945200D01*
X143510000Y-85369400D02*
X139750800Y-89128600D01*
X143510000Y-82550000D02*
X143256000Y-82804000D01*
X143383000Y-96520000D02*
X143510000Y-96520000D01*
X102870000Y-52070000D02*
X106045000Y-52070000D01*
D46*
X102870000Y-96393000D02*
X102870000Y-100330000D01*
X102870000Y-100330000D02*
X101600000Y-101600000D01*
X101600000Y-101600000D02*
X101600000Y-102235000D01*
D50*
X69469000Y-92710000D02*
X100330000Y-92710000D01*
X100330000Y-92710000D02*
X101346000Y-91694000D01*
X101346000Y-91694000D02*
X101981000Y-91694000D01*
D45*
X33020000Y-108585000D02*
X33020000Y-104140000D01*
X50800000Y-83820000D02*
X50800000Y-84455000D01*
X50800000Y-84455000D02*
X50165000Y-85090000D01*
X50165000Y-92710000D02*
X52070000Y-94615000D01*
X50165000Y-85090000D02*
X50165000Y-92710000D01*
X41275000Y-94615000D02*
X40640000Y-94615000D01*
X40640000Y-94615000D02*
X39370000Y-93345000D01*
X39370000Y-90170000D02*
X38100000Y-88900000D01*
X39370000Y-93345000D02*
X39370000Y-90170000D01*
X53420000Y-72390000D02*
X53420000Y-72754500D01*
X53420000Y-72754500D02*
X52451000Y-73723500D01*
X52451000Y-73723500D02*
X49593500Y-73723500D01*
X49593500Y-73723500D02*
X49530000Y-73660000D01*
X50800000Y-81280000D02*
X49530000Y-80010000D01*
X49530000Y-73660000D02*
X48260000Y-72390000D01*
D50*
X49530000Y-80010000D02*
X49530000Y-73660000D01*
D45*
X106553000Y-93218000D02*
X106045000Y-92710000D01*
X106045000Y-92710000D02*
X105664000Y-92329000D01*
X105664000Y-92329000D02*
X105664000Y-91313000D01*
X105664000Y-91313000D02*
X106553000Y-90424000D01*
X106553000Y-90424000D02*
X106426000Y-90297000D01*
D50*
X107188000Y-82804000D02*
X106299000Y-81915000D01*
X107188000Y-83312000D02*
X107188000Y-82804000D01*
X108458000Y-84582000D02*
X107188000Y-83312000D01*
D45*
X68580000Y-45720000D02*
X68580000Y-49657000D01*
X68580000Y-49657000D02*
X68707000Y-49784000D01*
X60960000Y-45720000D02*
X60960000Y-50292000D01*
X60960000Y-50292000D02*
X61976000Y-51308000D01*
X55880000Y-45720000D02*
X55880000Y-49276000D01*
X55880000Y-49276000D02*
X55626000Y-49530000D01*
X72771000Y-63754000D02*
X77724000Y-63754000D01*
X72009000Y-63754000D02*
X72771000Y-63754000D01*
X69850000Y-65913000D02*
X72009000Y-63754000D01*
X77724000Y-63754000D02*
X78105000Y-63373000D01*
X69850000Y-66040000D02*
X69850000Y-65913000D01*
X43180000Y-57531000D02*
X43180000Y-57277000D01*
X61595000Y-104013000D02*
X61595000Y-103124000D01*
X62103000Y-102616000D02*
X62103000Y-99187000D01*
X61595000Y-103124000D02*
X62103000Y-102616000D01*
X61722000Y-107188000D02*
X61595000Y-107061000D01*
X61595000Y-107061000D02*
X61595000Y-104013000D01*
X155067000Y-102108000D02*
X154940000Y-102235000D01*
X136017000Y-110871000D02*
X136652000Y-110871000D01*
X135890000Y-110998000D02*
X136017000Y-110871000D01*
X133731000Y-110744000D02*
X133985000Y-110998000D01*
X133985000Y-110998000D02*
X135890000Y-110998000D01*
X37846000Y-74041000D02*
X46736000Y-74041000D01*
X37465000Y-73660000D02*
X37846000Y-74041000D01*
X35560000Y-73660000D02*
X37465000Y-73660000D01*
X41148000Y-57531000D02*
X43180000Y-57531000D01*
X43180000Y-57531000D02*
X46863000Y-57531000D01*
X40640000Y-58039000D02*
X41148000Y-57531000D01*
X75565000Y-111887000D02*
X75565000Y-113411000D01*
X72136000Y-108458000D02*
X75565000Y-111887000D01*
X36830000Y-102362000D02*
X35687000Y-101219000D01*
X35687000Y-101219000D02*
X33020000Y-101219000D01*
X30226000Y-105410000D02*
X30226000Y-108712000D01*
X46609000Y-100838000D02*
X43053000Y-100838000D01*
X50927000Y-100584000D02*
X50673000Y-100838000D01*
X54356000Y-100584000D02*
X50927000Y-100584000D01*
X56134000Y-98806000D02*
X54356000Y-100584000D01*
X56134000Y-98552000D02*
X56134000Y-98806000D01*
X56769000Y-97917000D02*
X56134000Y-98552000D01*
X81915000Y-88265000D02*
X79629000Y-88265000D01*
X79629000Y-88265000D02*
X79121000Y-88773000D01*
X79121000Y-88773000D02*
X75311000Y-88773000D01*
X71120000Y-88773000D02*
X69723000Y-90170000D01*
X69723000Y-90170000D02*
X67056000Y-90170000D01*
X65659000Y-91821000D02*
X65786000Y-91948000D01*
X65786000Y-91948000D02*
X65786000Y-93853000D01*
X114300000Y-58420000D02*
X114300000Y-61087000D01*
X114300000Y-61087000D02*
X115697000Y-62484000D01*
D51*
X89535000Y-59055000D02*
X90043000Y-59055000D01*
X90703400Y-59715400D02*
X93980000Y-59715400D01*
X90043000Y-59055000D02*
X90703400Y-59715400D01*
X89535000Y-59055000D02*
X89535000Y-59740800D01*
X90754200Y-60960000D02*
X93980000Y-60960000D01*
X89535000Y-59740800D02*
X90754200Y-60960000D01*
X93980000Y-58420000D02*
X93980000Y-59715400D01*
X93980000Y-59715400D02*
X93980000Y-60960000D01*
D45*
X114300000Y-140970000D02*
X115570000Y-139700000D01*
X115570000Y-139700000D02*
X115570000Y-137160000D01*
X104140000Y-140970000D02*
X104140000Y-137160000D01*
D46*
X149860000Y-140970000D02*
X150114000Y-140716000D01*
D45*
X85090000Y-69850000D02*
X86360000Y-71120000D01*
X86360000Y-71120000D02*
X93980000Y-71120000D01*
D51*
X89535000Y-59055000D02*
X90170000Y-58420000D01*
X90170000Y-58420000D02*
X93980000Y-58420000D01*
D45*
X93980000Y-88900000D02*
X92710000Y-87630000D01*
X92710000Y-87630000D02*
X85090000Y-87630000D01*
X85090000Y-87630000D02*
X84455000Y-88265000D01*
X84455000Y-88265000D02*
X81915000Y-88265000D01*
D47*
X115951000Y-137160000D02*
X115570000Y-137160000D01*
X93980000Y-101600000D02*
X93472000Y-101600000D01*
D49*
X38100000Y-81280000D02*
X38100000Y-83820000D01*
X91440000Y-76200000D02*
X91440000Y-78740000D01*
X91440000Y-78740000D02*
X91440000Y-81280000D01*
D51*
X168910000Y-82550000D02*
X168910000Y-83820000D01*
X168910000Y-83820000D02*
X163830000Y-88900000D01*
X157861000Y-71374000D02*
X162560000Y-76200000D01*
X157861000Y-71374000D02*
X157861000Y-59944000D01*
X157861000Y-59944000D02*
X153670000Y-55880000D01*
X153670000Y-55880000D02*
X153670000Y-54610000D01*
X162560000Y-76200000D02*
X162560000Y-78740000D01*
D52*
X154940000Y-77470000D02*
X153670000Y-77470000D01*
X152400000Y-76200000D02*
X152400000Y-75640000D01*
X153670000Y-77470000D02*
X152400000Y-76200000D01*
X152400000Y-75640000D02*
X152460000Y-75580000D01*
X154940000Y-74930000D02*
X152460000Y-74930000D01*
D51*
X167640000Y-68580000D02*
X161290000Y-68580000D01*
D45*
X49530000Y-49530000D02*
X52070000Y-52070000D01*
X52070000Y-52070000D02*
X53340000Y-52070000D01*
X85090000Y-58420000D02*
X84201000Y-58420000D01*
X84201000Y-58420000D02*
X83439000Y-57658000D01*
X83439000Y-57658000D02*
X57658000Y-57658000D01*
X57658000Y-57658000D02*
X54610000Y-54610000D01*
X127000000Y-48260000D02*
X123190000Y-52070000D01*
X123190000Y-52070000D02*
X112014000Y-52070000D01*
D49*
X132080000Y-49530000D02*
X130810000Y-48260000D01*
X130810000Y-48260000D02*
X127000000Y-48260000D01*
X132080000Y-49530000D02*
X133350000Y-48260000D01*
D45*
X63500000Y-71120000D02*
X64770000Y-69850000D01*
X64770000Y-69850000D02*
X66040000Y-69850000D01*
X66040000Y-69850000D02*
X68580000Y-67310000D01*
D46*
X69850000Y-68580000D02*
X72517000Y-68580000D01*
X72517000Y-68580000D02*
X73406000Y-67691000D01*
X90424000Y-67056000D02*
X92710000Y-64770000D01*
X92710000Y-64770000D02*
X101092000Y-64770000D01*
X101092000Y-64770000D02*
X101727000Y-65405000D01*
X119761000Y-66294000D02*
X128143000Y-74676000D01*
X128143000Y-74676000D02*
X128143000Y-75184000D01*
D47*
X135890000Y-75946000D02*
X135382000Y-76454000D01*
D45*
X108394500Y-96329500D02*
X108521500Y-96329500D01*
X108521500Y-96329500D02*
X109220000Y-97028000D01*
X109220000Y-97028000D02*
X132842000Y-97028000D01*
X132842000Y-97028000D02*
X133350000Y-96520000D01*
X81915000Y-90805000D02*
X81915000Y-90678000D01*
X81915000Y-90678000D02*
X82423000Y-90170000D01*
X102235000Y-90170000D02*
X108394500Y-96329500D01*
X108394500Y-96329500D02*
X108585000Y-96520000D01*
X82423000Y-90170000D02*
X102235000Y-90170000D01*
X113030000Y-59690000D02*
X113030000Y-62230000D01*
X155651200Y-62484000D02*
X155879800Y-62712600D01*
X131826000Y-62484000D02*
X155651200Y-62484000D01*
X130175000Y-64135000D02*
X131826000Y-62484000D01*
X114935000Y-64135000D02*
X130175000Y-64135000D01*
X113030000Y-62230000D02*
X114935000Y-64135000D01*
X113030000Y-56769000D02*
X113030000Y-59690000D01*
X113030000Y-59690000D02*
X113030000Y-59817000D01*
X94234000Y-56261000D02*
X95885000Y-54610000D01*
X59690000Y-55499000D02*
X59690000Y-54610000D01*
X59690000Y-55499000D02*
X60452000Y-56261000D01*
X60452000Y-56261000D02*
X94234000Y-56261000D01*
X57150000Y-54610000D02*
X57150000Y-54991000D01*
X57150000Y-54991000D02*
X59055000Y-56896000D01*
X96139000Y-56896000D02*
X97282000Y-55753000D01*
X59055000Y-56896000D02*
X96139000Y-56896000D01*
X107950000Y-46990000D02*
X102870000Y-46990000D01*
D49*
X137160000Y-72390000D02*
X137160000Y-74930000D01*
X137160000Y-74930000D02*
X138430000Y-75946000D01*
X148590000Y-84328000D02*
X148590000Y-83820000D01*
D45*
X62484000Y-58801000D02*
X45974000Y-58801000D01*
X70485000Y-58547000D02*
X70231000Y-58801000D01*
X70231000Y-58801000D02*
X62484000Y-58801000D01*
X48260000Y-67056000D02*
X48260000Y-68580000D01*
X47371000Y-66167000D02*
X48260000Y-67056000D01*
X46990000Y-66167000D02*
X47371000Y-66167000D01*
X45212000Y-64389000D02*
X46990000Y-66167000D01*
X45212000Y-62484000D02*
X45212000Y-64389000D01*
X45085000Y-62357000D02*
X45212000Y-62484000D01*
X45974000Y-58801000D02*
X45085000Y-59690000D01*
X69850000Y-54610000D02*
X69596000Y-54610000D01*
X71120000Y-52070000D02*
X69850000Y-53340000D01*
X69850000Y-53340000D02*
X69850000Y-54610000D01*
X49530000Y-95885000D02*
X50165000Y-95250000D01*
X46990000Y-95885000D02*
X49530000Y-95885000D01*
X46355000Y-95250000D02*
X46990000Y-95885000D01*
X55880000Y-94615000D02*
X54737000Y-95758000D01*
X54737000Y-95758000D02*
X54737000Y-96393000D01*
X54737000Y-96393000D02*
X54610000Y-96520000D01*
X54610000Y-96520000D02*
X54610000Y-97790000D01*
X85090000Y-60960000D02*
X83566000Y-60960000D01*
X82296000Y-59690000D02*
X77470000Y-59690000D01*
X83566000Y-60960000D02*
X82296000Y-59690000D01*
X43180000Y-72390000D02*
X43180000Y-71374000D01*
X53975000Y-59690000D02*
X77470000Y-59690000D01*
X52578000Y-61087000D02*
X53975000Y-59690000D01*
X52578000Y-67945000D02*
X52578000Y-61087000D01*
X49911000Y-70612000D02*
X52578000Y-67945000D01*
X43942000Y-70612000D02*
X49911000Y-70612000D01*
X43180000Y-71374000D02*
X43942000Y-70612000D01*
X48260000Y-94615000D02*
X46990000Y-93345000D01*
X46990000Y-93345000D02*
X46990000Y-90805000D01*
X46990000Y-90805000D02*
X47625000Y-90805000D01*
X47625000Y-90805000D02*
X48260000Y-90170000D01*
X48260000Y-90170000D02*
X48260000Y-88900000D01*
X41910000Y-97790000D02*
X41910000Y-96621600D01*
X41910000Y-96621600D02*
X41173400Y-95885000D01*
X36195000Y-93980000D02*
X34290000Y-92075000D01*
X36195000Y-95224600D02*
X36195000Y-93980000D01*
X36855400Y-95885000D02*
X36195000Y-95224600D01*
X41173400Y-95885000D02*
X36855400Y-95885000D01*
X41910000Y-97282000D02*
X41910000Y-97790000D01*
X34925000Y-86360000D02*
X34290000Y-86995000D01*
X34290000Y-86995000D02*
X34290000Y-92075000D01*
X71120000Y-49530000D02*
X68580000Y-52070000D01*
X68580000Y-52070000D02*
X66040000Y-52070000D01*
X56642000Y-93599000D02*
X56591200Y-93599000D01*
X64389000Y-93726000D02*
X64389000Y-91694000D01*
X56769000Y-93726000D02*
X59563000Y-93726000D01*
X56642000Y-93599000D02*
X56769000Y-93726000D01*
X54635400Y-94792800D02*
X52070000Y-97358200D01*
X54635400Y-94107000D02*
X54635400Y-94792800D01*
X55372000Y-93370400D02*
X54635400Y-94107000D01*
X56362600Y-93370400D02*
X55372000Y-93370400D01*
X56591200Y-93599000D02*
X56362600Y-93370400D01*
X52070000Y-97358200D02*
X52070000Y-97790000D01*
X55880000Y-92075000D02*
X53213000Y-89408000D01*
X53213000Y-89408000D02*
X53213000Y-89154000D01*
X52070000Y-97790000D02*
X52578000Y-97790000D01*
D46*
X52070000Y-97155000D02*
X52070000Y-97790000D01*
D49*
X154940000Y-83820000D02*
X154940000Y-93980000D01*
X154940000Y-93980000D02*
X154940000Y-87630000D01*
X154940000Y-87630000D02*
X151130000Y-83820000D01*
D51*
X171450000Y-105330000D02*
X166450000Y-105330000D01*
X158750000Y-93980000D02*
X154940000Y-93980000D01*
X163830000Y-99060000D02*
X158750000Y-93980000D01*
X163830000Y-102710000D02*
X163830000Y-99060000D01*
X166450000Y-105330000D02*
X163830000Y-102710000D01*
D45*
X95250000Y-46990000D02*
X90170000Y-46990000D01*
X83820000Y-116840000D02*
X80645000Y-120015000D01*
X80645000Y-120015000D02*
X80645000Y-121920000D01*
X80645000Y-121920000D02*
X79375000Y-123190000D01*
X79375000Y-123190000D02*
X39370000Y-123190000D01*
D50*
X39370000Y-123190000D02*
X39370000Y-125730000D01*
X39370000Y-125730000D02*
X36830000Y-125730000D01*
X36830000Y-125730000D02*
X36830000Y-128270000D01*
X36830000Y-128270000D02*
X34290000Y-128270000D01*
X34290000Y-128270000D02*
X33655000Y-128905000D01*
D45*
X33655000Y-128905000D02*
X33020000Y-128905000D01*
X33020000Y-128905000D02*
X32385000Y-129540000D01*
X32385000Y-129540000D02*
X26670000Y-129540000D01*
X26670000Y-129540000D02*
X25400000Y-128270000D01*
X25400000Y-128270000D02*
X25400000Y-127000000D01*
X25400000Y-127000000D02*
X24130000Y-125730000D01*
X32385000Y-127000000D02*
X34290000Y-125095000D01*
X34290000Y-125095000D02*
X34290000Y-123190000D01*
X34290000Y-123190000D02*
X36830000Y-120650000D01*
X36830000Y-120650000D02*
X71755000Y-120650000D01*
X71755000Y-120650000D02*
X76835000Y-115570000D01*
X76835000Y-115570000D02*
X77470000Y-115570000D01*
X83820000Y-111760000D02*
X85090000Y-113030000D01*
X85090000Y-113030000D02*
X85090000Y-118110000D01*
X85090000Y-118110000D02*
X82550000Y-120650000D01*
X82550000Y-120650000D02*
X82550000Y-121285000D01*
X80645000Y-112395000D02*
X79375000Y-113665000D01*
X79375000Y-113665000D02*
X79375000Y-121285000D01*
X78105000Y-112395000D02*
X71120000Y-119380000D01*
X71120000Y-119380000D02*
X41275000Y-119380000D01*
X41275000Y-119380000D02*
X40640000Y-118745000D01*
X40640000Y-118745000D02*
X30480000Y-118745000D01*
X30480000Y-118745000D02*
X30480000Y-119380000D01*
X30480000Y-119380000D02*
X28575000Y-119380000D01*
X28575000Y-119380000D02*
X24765000Y-115570000D01*
X24765000Y-115570000D02*
X24130000Y-115570000D01*
X24130000Y-113030000D02*
X29210000Y-118110000D01*
X29210000Y-118110000D02*
X29845000Y-118110000D01*
X73025000Y-112395000D02*
X67310000Y-118110000D01*
X67310000Y-118110000D02*
X41910000Y-118110000D01*
X41910000Y-118110000D02*
X39370000Y-115570000D01*
X39370000Y-115570000D02*
X31115000Y-115570000D01*
X31115000Y-115570000D02*
X26035000Y-110490000D01*
X26035000Y-110490000D02*
X24130000Y-110490000D01*
X45720000Y-116205000D02*
X43815000Y-114300000D01*
X43815000Y-114300000D02*
X31750000Y-114300000D01*
X31750000Y-114300000D02*
X25400000Y-107950000D01*
X25400000Y-107950000D02*
X24130000Y-107950000D01*
X142240000Y-132080000D02*
X140970000Y-132080000D01*
X140970000Y-132080000D02*
X135890000Y-127000000D01*
X146050000Y-134620000D02*
X148082000Y-132588000D01*
X148082000Y-122555000D02*
X148717000Y-121920000D01*
X148082000Y-132588000D02*
X148082000Y-122555000D01*
X148717000Y-121920000D02*
X149860000Y-121920000D01*
D46*
X160020000Y-121920000D02*
X159639000Y-122301000D01*
D47*
X160020000Y-121920000D02*
X160274000Y-121920000D01*
D46*
X163957000Y-127000000D02*
X165100000Y-127000000D01*
D45*
X160020000Y-127000000D02*
X157353000Y-129667000D01*
X157353000Y-129667000D02*
X157353000Y-131826000D01*
X167513000Y-135128000D02*
X166751000Y-135890000D01*
X166751000Y-135890000D02*
X163449000Y-135890000D01*
X163449000Y-135890000D02*
X161290000Y-133731000D01*
X161290000Y-133731000D02*
X161290000Y-130810000D01*
X161290000Y-130810000D02*
X160020000Y-129540000D01*
X175260000Y-135001000D02*
X174371000Y-134112000D01*
X174371000Y-134112000D02*
X174371000Y-123190000D01*
X174371000Y-123190000D02*
X173990000Y-123190000D01*
X173990000Y-123190000D02*
X172720000Y-121920000D01*
D46*
X172720000Y-121920000D02*
X172339000Y-122301000D01*
D45*
X104140000Y-124460000D02*
X99060000Y-119380000D01*
X104140000Y-132080000D02*
X102362000Y-130175000D01*
X102362000Y-130175000D02*
X102362000Y-125095000D01*
X102362000Y-125095000D02*
X99060000Y-121920000D01*
X111760000Y-134620000D02*
X107315000Y-134620000D01*
X107315000Y-134620000D02*
X106045000Y-133350000D01*
X106045000Y-133350000D02*
X102870000Y-133350000D01*
X102870000Y-133350000D02*
X101600000Y-132080000D01*
X101600000Y-132080000D02*
X101600000Y-127000000D01*
X101600000Y-127000000D02*
X99060000Y-124460000D01*
X108280200Y-132080000D02*
X109626400Y-130810000D01*
X109626400Y-130810000D02*
X113157000Y-130810000D01*
X113157000Y-130810000D02*
X114046000Y-132080000D01*
X114046000Y-132080000D02*
X115570000Y-132080000D01*
D46*
X115443000Y-132080000D02*
X115570000Y-132080000D01*
D45*
X108077000Y-138023600D02*
X109220000Y-139192000D01*
X109220000Y-139192000D02*
X113284000Y-139192000D01*
X109347000Y-126492000D02*
X109321600Y-129692400D01*
X110109000Y-125730000D02*
X109347000Y-126492000D01*
X117221000Y-125730000D02*
X110109000Y-125730000D01*
X117983000Y-124968000D02*
X117221000Y-125730000D01*
X122555000Y-124460000D02*
X123190000Y-124460000D01*
D46*
X128270000Y-121920000D02*
X126873000Y-120523000D01*
X126873000Y-120523000D02*
X121666000Y-120523000D01*
X121666000Y-120523000D02*
X119380000Y-118237000D01*
X119380000Y-118237000D02*
X114046000Y-118237000D01*
X114046000Y-118237000D02*
X113538000Y-118745000D01*
X113538000Y-118745000D02*
X113538000Y-120269000D01*
X113538000Y-120269000D02*
X113030000Y-120777000D01*
X113030000Y-120777000D02*
X110236000Y-120777000D01*
X110236000Y-120777000D02*
X105918000Y-125095000D01*
X105918000Y-125095000D02*
X105918000Y-127889000D01*
X105918000Y-127889000D02*
X104267000Y-129540000D01*
X104267000Y-129540000D02*
X104140000Y-129540000D01*
D45*
X128270000Y-124460000D02*
X129540000Y-125730000D01*
X129540000Y-125730000D02*
X129540000Y-128270000D01*
X129540000Y-128270000D02*
X127000000Y-128270000D01*
X127000000Y-128270000D02*
X124841000Y-130429000D01*
X124841000Y-130429000D02*
X124841000Y-130810000D01*
X124841000Y-130810000D02*
X120269000Y-130810000D01*
X111760000Y-127000000D02*
X113030000Y-128270000D01*
X113030000Y-128270000D02*
X124460000Y-128270000D01*
X124460000Y-128270000D02*
X125730000Y-127000000D01*
X125730000Y-127000000D02*
X128270000Y-127000000D01*
X143510000Y-114300000D02*
X144780000Y-115570000D01*
X144780000Y-115570000D02*
X144780000Y-123190000D01*
X144780000Y-123190000D02*
X143510000Y-123190000D01*
X143510000Y-123190000D02*
X142240000Y-124460000D01*
X146050000Y-114300000D02*
X146050000Y-124460000D01*
X146050000Y-124460000D02*
X144780000Y-125730000D01*
X144780000Y-125730000D02*
X144780000Y-128270000D01*
X144780000Y-128270000D02*
X143510000Y-128270000D01*
X143510000Y-128270000D02*
X142240000Y-129540000D01*
X142240000Y-134620000D02*
X143510000Y-134620000D01*
X143510000Y-134620000D02*
X147320000Y-130810000D01*
X147320000Y-130810000D02*
X147320000Y-118110000D01*
X147320000Y-118110000D02*
X148590000Y-116840000D01*
X148590000Y-116840000D02*
X148590000Y-114300000D01*
X151130000Y-114300000D02*
X152400000Y-115570000D01*
X152400000Y-115570000D02*
X152400000Y-135890000D01*
X152400000Y-135890000D02*
X151130000Y-135890000D01*
X151130000Y-135890000D02*
X149860000Y-137160000D01*
X153670000Y-114300000D02*
X154940000Y-115570000D01*
X154940000Y-115570000D02*
X154940000Y-128270000D01*
X156210000Y-114300000D02*
X156210000Y-121920000D01*
X161290000Y-114300000D02*
X157353000Y-118237000D01*
X157353000Y-118237000D02*
X157353000Y-126746000D01*
X163830000Y-114300000D02*
X163830000Y-115239800D01*
X163855400Y-134620000D02*
X165100000Y-134620000D01*
X163068000Y-133832600D02*
X163855400Y-134620000D01*
X163068000Y-116001800D02*
X163068000Y-133832600D01*
X163830000Y-115239800D02*
X163068000Y-116001800D01*
X163830000Y-114300000D02*
X163449000Y-114681000D01*
X164973000Y-134620000D02*
X165100000Y-134620000D01*
D50*
X163830000Y-114300000D02*
X163449000Y-114681000D01*
X164973000Y-134620000D02*
X165100000Y-134620000D01*
D45*
X163830000Y-114300000D02*
X163449000Y-114681000D01*
X172720000Y-137160000D02*
X171450000Y-137160000D01*
X171450000Y-137160000D02*
X167640000Y-133350000D01*
X167640000Y-133350000D02*
X167640000Y-118110000D01*
X167640000Y-118110000D02*
X166370000Y-116840000D01*
X166370000Y-116840000D02*
X166370000Y-114300000D01*
X172720000Y-132080000D02*
X171450000Y-132080000D01*
X171450000Y-132080000D02*
X168910000Y-129540000D01*
X168910000Y-129540000D02*
X168910000Y-114300000D01*
X172720000Y-124460000D02*
X171450000Y-123190000D01*
X171450000Y-123190000D02*
X170180000Y-123190000D01*
X170180000Y-123190000D02*
X170180000Y-118110000D01*
X170180000Y-118110000D02*
X171450000Y-116840000D01*
X171450000Y-116840000D02*
X171450000Y-114300000D01*
D50*
X109220000Y-73025000D02*
X109220000Y-66040000D01*
D46*
X109220000Y-61040000D02*
X109220000Y-61087000D01*
X109220000Y-61087000D02*
X110617000Y-62484000D01*
X110617000Y-62484000D02*
X110617000Y-70358000D01*
X110617000Y-70358000D02*
X110744000Y-70485000D01*
X110744000Y-70485000D02*
X110744000Y-70612000D01*
X110744000Y-70612000D02*
X110998000Y-70866000D01*
X110998000Y-70866000D02*
X110998000Y-71374000D01*
X110998000Y-71374000D02*
X111125000Y-71501000D01*
X111125000Y-71501000D02*
X111125000Y-71628000D01*
X111125000Y-71628000D02*
X111760000Y-72263000D01*
X111760000Y-72263000D02*
X111760000Y-76200000D01*
D45*
X111760000Y-78740000D02*
X111760000Y-76200000D01*
D50*
X109220000Y-61040000D02*
X109220000Y-61087000D01*
D45*
X109220000Y-60960000D02*
X109220000Y-61040000D01*
D50*
X108585000Y-82550000D02*
X106680000Y-80645000D01*
X106680000Y-80645000D02*
X106680000Y-76835000D01*
D45*
X106680000Y-76835000D02*
X106680000Y-77470000D01*
X109220000Y-82550000D02*
X108585000Y-82550000D01*
D46*
X118110000Y-66040000D02*
X118110000Y-73025000D01*
X121920000Y-85471000D02*
X121158000Y-85471000D01*
X121158000Y-85471000D02*
X120904000Y-85217000D01*
X120904000Y-85217000D02*
X117602000Y-85217000D01*
X117602000Y-85217000D02*
X116332000Y-83947000D01*
X106426000Y-83693000D02*
X104140000Y-81407000D01*
X104140000Y-81407000D02*
X103124000Y-81407000D01*
X103124000Y-81407000D02*
X101092000Y-79375000D01*
X101092000Y-79375000D02*
X100965000Y-79375000D01*
X100965000Y-79375000D02*
X100965000Y-76835000D01*
X100965000Y-76835000D02*
X103505000Y-76835000D01*
X103505000Y-76835000D02*
X103759000Y-76581000D01*
X103759000Y-76581000D02*
X103759000Y-75438000D01*
X103759000Y-75438000D02*
X103886000Y-75311000D01*
X103886000Y-75311000D02*
X103886000Y-75184000D01*
X103886000Y-75184000D02*
X104648000Y-74422000D01*
X104648000Y-74422000D02*
X104775000Y-74422000D01*
X104775000Y-74422000D02*
X104902000Y-74295000D01*
X104902000Y-74295000D02*
X107188000Y-74295000D01*
X107188000Y-74295000D02*
X108077000Y-73406000D01*
X108077000Y-73406000D02*
X108077000Y-65532000D01*
X108077000Y-65532000D02*
X108204000Y-65405000D01*
X108204000Y-65405000D02*
X108204000Y-65278000D01*
X108204000Y-65278000D02*
X109093000Y-64389000D01*
X121920000Y-83947000D02*
X122428000Y-83439000D01*
X122428000Y-83439000D02*
X122428000Y-82423000D01*
X122428000Y-82423000D02*
X122555000Y-82296000D01*
X122555000Y-82296000D02*
X122555000Y-82169000D01*
X122555000Y-82169000D02*
X122809000Y-81915000D01*
X122809000Y-81915000D02*
X122936000Y-81915000D01*
X122936000Y-81915000D02*
X123063000Y-81788000D01*
X123063000Y-81788000D02*
X126746000Y-81788000D01*
X126746000Y-81788000D02*
X129032000Y-79502000D01*
X129032000Y-79502000D02*
X129159000Y-79502000D01*
X129159000Y-79502000D02*
X129286000Y-79375000D01*
X129286000Y-79375000D02*
X130175000Y-79375000D01*
X130175000Y-79375000D02*
X130810000Y-78740000D01*
D45*
X111760000Y-88900000D02*
X111760000Y-91440000D01*
X118110000Y-60960000D02*
X118110000Y-61040000D01*
X118110000Y-60960000D02*
X118110000Y-61040000D01*
X107442000Y-86741000D02*
X104140000Y-87630000D01*
X104140000Y-87630000D02*
X102870000Y-88900000D01*
D50*
X102235000Y-70485000D02*
X102362000Y-70612000D01*
X102362000Y-70612000D02*
X104140000Y-70612000D01*
X104140000Y-70612000D02*
X106680000Y-73152000D01*
X106680000Y-73152000D02*
X106680000Y-73025000D01*
D45*
X102235000Y-70485000D02*
X102870000Y-71120000D01*
X106680000Y-73660000D02*
X106680000Y-73025000D01*
X115570000Y-73660000D02*
X115570000Y-73025000D01*
D50*
X121920000Y-92710000D02*
X124841000Y-89789000D01*
X124841000Y-89789000D02*
X124841000Y-87884000D01*
D46*
X130810000Y-81280000D02*
X129413000Y-82677000D01*
X129413000Y-82677000D02*
X129413000Y-85979000D01*
X129413000Y-85979000D02*
X127635000Y-87757000D01*
X127635000Y-87757000D02*
X127635000Y-90250000D01*
D50*
X127635000Y-90250000D02*
X127762000Y-90170000D01*
X127635000Y-90250000D02*
X127762000Y-90170000D01*
X127635000Y-90250000D02*
X127635000Y-90297000D01*
X127635000Y-90297000D02*
X128143000Y-89789000D01*
X127635000Y-90250000D02*
X127635000Y-90297000D01*
X127635000Y-90297000D02*
X128016000Y-89916000D01*
X127635000Y-90250000D02*
X127635000Y-90297000D01*
X127635000Y-90297000D02*
X128016000Y-89916000D01*
D46*
X119380000Y-86360000D02*
X117856000Y-87693500D01*
X117856000Y-87693500D02*
X117729000Y-87693500D01*
X117729000Y-87693500D02*
X117729000Y-92519500D01*
X117729000Y-92519500D02*
X118110000Y-92837000D01*
X118110000Y-92837000D02*
X118110000Y-95504000D01*
X102235000Y-75565000D02*
X101346000Y-75565000D01*
X101346000Y-75565000D02*
X100584000Y-76327000D01*
X100584000Y-76327000D02*
X100457000Y-76327000D01*
X100457000Y-76327000D02*
X100457000Y-79883000D01*
X100457000Y-79883000D02*
X102362000Y-81788000D01*
X102362000Y-81788000D02*
X102362000Y-82804000D01*
X102362000Y-82804000D02*
X102489000Y-82931000D01*
X102489000Y-82931000D02*
X102489000Y-83185000D01*
X102489000Y-83185000D02*
X102870000Y-83566000D01*
X102870000Y-83566000D02*
X102997000Y-83566000D01*
X102997000Y-83566000D02*
X103124000Y-83693000D01*
X103124000Y-83693000D02*
X105156000Y-83693000D01*
X105156000Y-83693000D02*
X105918000Y-84455000D01*
X105918000Y-84455000D02*
X106045000Y-84455000D01*
X106045000Y-84455000D02*
X106172000Y-84582000D01*
X106172000Y-84582000D02*
X107315000Y-84582000D01*
X107315000Y-84582000D02*
X110236000Y-87503000D01*
X110236000Y-87503000D02*
X113030000Y-87503000D01*
X113030000Y-87503000D02*
X116840000Y-91313000D01*
X116840000Y-91313000D02*
X116840000Y-91567000D01*
D50*
X102235000Y-75565000D02*
X102362000Y-75692000D01*
X102362000Y-75692000D02*
X102108000Y-75692000D01*
X125095000Y-79883000D02*
X122682000Y-77470000D01*
X122682000Y-77470000D02*
X122682000Y-72390000D01*
X124714000Y-79502000D02*
X125095000Y-79883000D01*
X119380000Y-76200000D02*
X119380000Y-78740000D01*
X149606000Y-77216000D02*
X149352000Y-77216000D01*
X149352000Y-77216000D02*
X148082000Y-78486000D01*
X148082000Y-78486000D02*
X147955000Y-78486000D01*
X147955000Y-78486000D02*
X147574000Y-78867000D01*
X147574000Y-78867000D02*
X141986000Y-78867000D01*
X141986000Y-78867000D02*
X137160000Y-83693000D01*
X137160000Y-83693000D02*
X137160000Y-88138000D01*
X137160000Y-88138000D02*
X132207000Y-88138000D01*
X132207000Y-88138000D02*
X130810000Y-86741000D01*
X130810000Y-86741000D02*
X130810000Y-83820000D01*
D46*
X115697000Y-81661000D02*
X114935000Y-82423000D01*
X114935000Y-82423000D02*
X114935000Y-83058000D01*
X114935000Y-83058000D02*
X114554000Y-83439000D01*
X114554000Y-83439000D02*
X114554000Y-87630000D01*
X108839000Y-90805000D02*
X108585000Y-91059000D01*
X108585000Y-91059000D02*
X108585000Y-92202000D01*
X108585000Y-92202000D02*
X108458000Y-92329000D01*
X108458000Y-92329000D02*
X108458000Y-92456000D01*
X108458000Y-92456000D02*
X107696000Y-93218000D01*
X107696000Y-93218000D02*
X107696000Y-94107000D01*
D50*
X103759000Y-78105000D02*
X102235000Y-78105000D01*
X104394000Y-77470000D02*
X103759000Y-78105000D01*
X104394000Y-75692000D02*
X104394000Y-77470000D01*
X105156000Y-74930000D02*
X104394000Y-75692000D01*
X109728000Y-74930000D02*
X105156000Y-74930000D01*
X110744000Y-73914000D02*
X109728000Y-74930000D01*
X102362000Y-78232000D02*
X102235000Y-78105000D01*
D46*
X58039000Y-100584000D02*
X57658000Y-100584000D01*
X39370000Y-99060000D02*
X39370000Y-97790000D01*
X42545000Y-102235000D02*
X39370000Y-99060000D01*
X50419000Y-102235000D02*
X42545000Y-102235000D01*
X51308000Y-103124000D02*
X50419000Y-102235000D01*
X55118000Y-103124000D02*
X51308000Y-103124000D01*
X57658000Y-100584000D02*
X55118000Y-103124000D01*
X127635000Y-101600000D02*
X126365000Y-100330000D01*
X126365000Y-100330000D02*
X125730000Y-100330000D01*
X125730000Y-100330000D02*
X125730000Y-97790000D01*
X125730000Y-97790000D02*
X125603000Y-97663000D01*
X125603000Y-97663000D02*
X109093000Y-97663000D01*
X109093000Y-97663000D02*
X108839000Y-97409000D01*
X108839000Y-97409000D02*
X108712000Y-97409000D01*
X108712000Y-97409000D02*
X108204000Y-96901000D01*
X108204000Y-96901000D02*
X108077000Y-96901000D01*
X108077000Y-96901000D02*
X107823000Y-96647000D01*
X107823000Y-96647000D02*
X104648000Y-96647000D01*
X104648000Y-96647000D02*
X104521000Y-96520000D01*
X104521000Y-96520000D02*
X104394000Y-96520000D01*
X104394000Y-96520000D02*
X103124000Y-95250000D01*
X103124000Y-95250000D02*
X85090000Y-95250000D01*
X85090000Y-95250000D02*
X84328000Y-96012000D01*
X84328000Y-96012000D02*
X70866000Y-96012000D01*
X59436000Y-100584000D02*
X58039000Y-100584000D01*
X130175000Y-101600000D02*
X131445000Y-100330000D01*
X131445000Y-100330000D02*
X133350000Y-100330000D01*
X133350000Y-100330000D02*
X133350000Y-97790000D01*
X133350000Y-97790000D02*
X133477000Y-97663000D01*
X133477000Y-97663000D02*
X137414000Y-97663000D01*
X137414000Y-97663000D02*
X137414000Y-97282000D01*
X137414000Y-97282000D02*
X138303000Y-96393000D01*
X143891000Y-74422000D02*
X144018000Y-74295000D01*
X144018000Y-74295000D02*
X147240000Y-74295000D01*
X130175000Y-116205000D02*
X127635000Y-116205000D01*
X127635000Y-101600000D02*
X130175000Y-101600000D01*
X130175000Y-101600000D02*
X130683000Y-101600000D01*
X130175000Y-101600000D02*
X130937000Y-101600000D01*
X147193000Y-74295000D02*
X147240000Y-74295000D01*
D47*
X127635000Y-116205000D02*
X127508000Y-116586000D01*
X147240000Y-74295000D02*
X147320000Y-74422000D01*
X147320000Y-74422000D02*
X147066000Y-74168000D01*
X39370000Y-97790000D02*
X35814000Y-97790000D01*
X34290000Y-99060000D02*
X33020000Y-99060000D01*
X35306000Y-98044000D02*
X34290000Y-99060000D01*
X35560000Y-98044000D02*
X35306000Y-98044000D01*
X35814000Y-97790000D02*
X35560000Y-98044000D01*
X33020000Y-99060000D02*
X33020000Y-99140000D01*
X33020000Y-99140000D02*
X33020000Y-96012000D01*
X33020000Y-96012000D02*
X34290000Y-94742000D01*
X34290000Y-94742000D02*
X34290000Y-94615000D01*
X147240000Y-74295000D02*
X147320000Y-74422000D01*
X147320000Y-74422000D02*
X147574000Y-74168000D01*
X147574000Y-74168000D02*
X149860000Y-74168000D01*
X149860000Y-74168000D02*
X149800000Y-74280000D01*
D45*
X110998000Y-104775000D02*
X110490000Y-104775000D01*
D46*
X124968000Y-108712000D02*
X139954000Y-108712000D01*
X140843000Y-109601000D02*
X141986000Y-109601000D01*
X139954000Y-108712000D02*
X140843000Y-109601000D01*
X144018000Y-109601000D02*
X144780000Y-110363000D01*
X141478000Y-109601000D02*
X141986000Y-109601000D01*
X141986000Y-109601000D02*
X144018000Y-109601000D01*
X144780000Y-110363000D02*
X144780000Y-111125000D01*
X144526000Y-111125000D02*
X144780000Y-111125000D01*
X116205000Y-105156000D02*
X116205000Y-103505000D01*
X114935000Y-106426000D02*
X116205000Y-105156000D01*
X114935000Y-108839000D02*
X114935000Y-106426000D01*
X115697000Y-109601000D02*
X114935000Y-108839000D01*
X116713000Y-109601000D02*
X115697000Y-109601000D01*
X117475000Y-110363000D02*
X116713000Y-109601000D01*
X117475000Y-112522000D02*
X117475000Y-110363000D01*
X117729000Y-112776000D02*
X117475000Y-112522000D01*
X120142000Y-112776000D02*
X117729000Y-112776000D01*
X116205000Y-103886000D02*
X116205000Y-103505000D01*
X139065000Y-110871000D02*
X141986000Y-110871000D01*
X137922000Y-109728000D02*
X139065000Y-110871000D01*
X126746000Y-109728000D02*
X137922000Y-109728000D01*
X141986000Y-110871000D02*
X142240000Y-111125000D01*
X125095000Y-113030000D02*
X123825000Y-114681000D01*
X123825000Y-114681000D02*
X123825000Y-114808000D01*
X123825000Y-114808000D02*
X121412000Y-114808000D01*
X121412000Y-114808000D02*
X120650000Y-113792000D01*
X120650000Y-113792000D02*
X113157000Y-113792000D01*
X113157000Y-113792000D02*
X113030000Y-113919000D01*
X113030000Y-113919000D02*
X112903000Y-113919000D01*
X112903000Y-113919000D02*
X112522000Y-114300000D01*
X112522000Y-114300000D02*
X106680000Y-114300000D01*
X125095000Y-113665000D02*
X125095000Y-113030000D01*
X104140000Y-102870000D02*
X103505000Y-102870000D01*
X103505000Y-102870000D02*
X101600000Y-104775000D01*
X137795000Y-105410000D02*
X138303000Y-105918000D01*
X138303000Y-105918000D02*
X143383000Y-105918000D01*
X143383000Y-105918000D02*
X144526000Y-104775000D01*
X144526000Y-104775000D02*
X144780000Y-104775000D01*
X144780000Y-101600000D02*
X143637000Y-100457000D01*
X143637000Y-100457000D02*
X141097000Y-100457000D01*
X141097000Y-100457000D02*
X139827000Y-101727000D01*
X139827000Y-101727000D02*
X135763000Y-101727000D01*
D45*
X122428000Y-106426000D02*
X122428000Y-106379000D01*
D46*
X112268000Y-115316000D02*
X110871000Y-115316000D01*
X112903000Y-115951000D02*
X112268000Y-115316000D01*
X113030000Y-115951000D02*
X112903000Y-115951000D01*
X113157000Y-116078000D02*
X113030000Y-115951000D01*
X123444000Y-116078000D02*
X113157000Y-116078000D01*
X124333000Y-115189000D02*
X123444000Y-116078000D01*
X124460000Y-115189000D02*
X124333000Y-115189000D01*
X124587000Y-115062000D02*
X124460000Y-115189000D01*
X134620000Y-115062000D02*
X124587000Y-115062000D01*
X135128000Y-115570000D02*
X134620000Y-115062000D01*
X135255000Y-113030000D02*
X135128000Y-113157000D01*
X106426000Y-110490000D02*
X106680000Y-110490000D01*
X118872000Y-108458000D02*
X119634000Y-107696000D01*
X119634000Y-107696000D02*
X129794000Y-107696000D01*
X129794000Y-107696000D02*
X130048000Y-107442000D01*
X130048000Y-107442000D02*
X130175000Y-107442000D01*
X130175000Y-107442000D02*
X130683000Y-106934000D01*
X130683000Y-106934000D02*
X131318000Y-106934000D01*
X131318000Y-106934000D02*
X132715000Y-105537000D01*
X132715000Y-105537000D02*
X132715000Y-105410000D01*
X132715000Y-106299000D02*
X132715000Y-105410000D01*
X135128000Y-102870000D02*
X135001000Y-102743000D01*
X135001000Y-102743000D02*
X124587000Y-102743000D01*
X124587000Y-102743000D02*
X124460000Y-102616000D01*
X124460000Y-102616000D02*
X124333000Y-102616000D01*
X124333000Y-102616000D02*
X123444000Y-101727000D01*
X123444000Y-101727000D02*
X122682000Y-101727000D01*
X142240000Y-104775000D02*
X141478000Y-103632000D01*
X141478000Y-103632000D02*
X136779000Y-103632000D01*
X136779000Y-103632000D02*
X136779000Y-103759000D01*
X136779000Y-103759000D02*
X135255000Y-105410000D01*
X141605000Y-104775000D02*
X142240000Y-104775000D01*
X106934000Y-107061000D02*
X106807000Y-106934000D01*
X115443000Y-114935000D02*
X116205000Y-114935000D01*
X127635000Y-105537000D02*
X127635000Y-105410000D01*
X142240000Y-101600000D02*
X140843000Y-102870000D01*
X140843000Y-102870000D02*
X136525000Y-102870000D01*
X136525000Y-102870000D02*
X135763000Y-103759000D01*
X135763000Y-103759000D02*
X126619000Y-103759000D01*
X126619000Y-103759000D02*
X126619000Y-103886000D01*
X126619000Y-103886000D02*
X125095000Y-105410000D01*
X125095000Y-105410000D02*
X125095000Y-105283000D01*
X125095000Y-105283000D02*
X122682000Y-102870000D01*
X122682000Y-102870000D02*
X120269000Y-102870000D01*
X125095000Y-104775000D02*
X125095000Y-105410000D01*
M02*
