M48
METRIC,TZ
T1C0.300
T2C0.400
T3C0.500
T4C0.600
T5C0.800
T6C0.810
T7C0.900
T8C1.000
T9C1.001
T10C1.016
T11C1.143
T12C1.300
T13C1.400
T14C1.500
T15C3.050
%
G90
G05
T1
X152400Y-93980
T2
X29845Y-118110
X30226Y-105410
X30226Y-108712
X32385Y-127000
X33020Y-101219
X33020Y-108585
X36830Y-102362
X40640Y-58039
X40640Y-102235
X43053Y-100838
X43180Y-57277
X45085Y-59690
X45085Y-62357
X45720Y-116205
X46355Y-95250
X46609Y-100838
X46736Y-74041
X46863Y-57531
X47498Y-54991
X50165Y-95250
X50673Y-100838
X51181Y-71628
X52070Y-101854
X52705Y-69469
X53213Y-89154
X55626Y-49530
X56769Y-97917
X57150Y-106426
X59436Y-100584
X59563Y-93726
X60452Y-99187
X61595Y-104013
X61722Y-107188
X61976Y-51308
X62103Y-99187
X64389Y-91694
X64389Y-93726
X65659Y-91821
X65786Y-93853
X66548Y-95885
X67056Y-90170
X67056Y-101854
X67056Y-103886
X68707Y-49784
X68834Y-96393
X69850Y-101600
X70485Y-58547
X70866Y-96012
X71120Y-88773
X72136Y-91694
X72136Y-108458
X72771Y-63754
X73025Y-112395
X73406Y-67691
X75311Y-88773
X75565Y-113411
X77470Y-115570
X78105Y-63373
X78105Y-112395
X79375Y-121285
X80645Y-112395
X81026Y-68834
X81407Y-73533
X82550Y-121285
X85344Y-55245
X87249Y-65913
X88011Y-69850
X89408Y-53213
X90424Y-67056
X95885Y-54610
X97282Y-55753
X97790Y-101600
X99060Y-104775
X101727Y-65405
X101854Y-66802
X104775Y-100965
X105918Y-64262
X106299Y-81915
X106299Y-85471
X106426Y-83693
X106426Y-90297
X106553Y-93218
X107696Y-94107
X108077Y-138024
X108280Y-132080
X108458Y-84582
X108839Y-90805
X109093Y-64389
X109220Y-101600
X109322Y-129692
X110744Y-73914
X110871Y-61214
X110871Y-115316
X112014Y-52070
X113030Y-56769
X113284Y-139192
X113538Y-66802
X114554Y-87630
X115697Y-62484
X115697Y-81661
X116332Y-83947
X116586Y-55753
X116840Y-91567
X117983Y-124968
X118872Y-108458
X119761Y-66294
X119888Y-61087
X120142Y-112776
X120269Y-102870
X120269Y-130810
X121920Y-83947
X121920Y-85471
X122682Y-101727
X124968Y-108712
X126746Y-109728
X128143Y-75184
X131953Y-64897
X133731Y-110744
X134239Y-67183
X135128Y-102870
X135128Y-115570
X135763Y-101727
X136017Y-107442
X138303Y-96393
X140081Y-67183
X143891Y-74422
X146050Y-134620
X146558Y-45466
X149606Y-77216
X152400Y-72644
X154940Y-128270
X155067Y-102108
X155880Y-62713
X156210Y-121920
X157353Y-126746
X157353Y-131826
X160147Y-76073
X167513Y-135128
X175260Y-135001
T3
X27940Y-128270
X31750Y-120015
X69469Y-92710
X88900Y-62586
X89535Y-59055
X97790Y-115570
X101981Y-91694
X102870Y-96393
X123317Y-82677
X153670Y-54610
X161290Y-68580
X167640Y-68580
T4
X68580Y-67310
X69850Y-66040
X69850Y-68580
X80645Y-89535
X81915Y-88265
X81915Y-90805
X83820Y-71120
X85090Y-69850
X85090Y-72390
X127000Y-48260
X128270Y-46990
X128270Y-49530
X132080Y-46990
X132080Y-49530
X133350Y-48260
X142240Y-83820
X143510Y-82550
X144780Y-83820
T5
X33020Y-99140
X33020Y-104140
X33100Y-113030
X34290Y-92075
X34290Y-94615
X34925Y-86360
X36195Y-99140
X36195Y-104140
X37465Y-86360
X37465Y-92075
X37465Y-94615
X38100Y-88900
X38100Y-113030
X39370Y-97790
X39370Y-105410
X40640Y-68580
X40640Y-72390
X41275Y-92075
X41275Y-94615
X41910Y-97790
X41910Y-105410
X41910Y-109220
X41910Y-111760
X41990Y-63500
X43180Y-68580
X43180Y-72390
X43260Y-116840
X44450Y-92075
X44450Y-94615
X44450Y-97790
X44450Y-105410
X45720Y-68580
X45720Y-72390
X45720Y-109220
X45720Y-111760
X46990Y-63500
X46990Y-97790
X46990Y-105410
X48260Y-68580
X48260Y-72390
X48260Y-88900
X48260Y-92075
X48260Y-94615
X48260Y-116840
X49530Y-49530
X49530Y-52070
X49530Y-97790
X49530Y-105410
X49530Y-109220
X49530Y-111760
X50800Y-55960
X50800Y-60960
X51515Y-88900
X52070Y-92075
X52070Y-94615
X52070Y-97790
X52070Y-105410
X53340Y-49530
X53340Y-52070
X53340Y-113030
X53420Y-72390
X54610Y-54610
X54610Y-62230
X54610Y-66040
X54610Y-68580
X54610Y-97790
X54610Y-105410
X55880Y-92075
X55880Y-94615
X56515Y-88900
X57150Y-54610
X57150Y-62230
X58340Y-113030
X58420Y-49530
X58420Y-52070
X58420Y-72390
X59690Y-54610
X59690Y-62230
X59690Y-66040
X59690Y-68580
X60960Y-90250
X60960Y-95250
X62230Y-54610
X62230Y-62230
X62310Y-113030
X63500Y-71120
X63500Y-73660
X64770Y-54610
X64770Y-62230
X64770Y-66040
X64770Y-68580
X66040Y-49530
X66040Y-52070
X67310Y-54610
X67310Y-62230
X67310Y-72390
X67310Y-113030
X69850Y-54610
X69850Y-62230
X69850Y-72390
X71120Y-49530
X71120Y-52070
X73660Y-66040
X74295Y-90170
X76835Y-90170
X77470Y-49530
X77470Y-59690
X78660Y-66040
X92710Y-52070
X92710Y-54610
X95250Y-46990
X95250Y-49530
X95250Y-52070
X102870Y-46990
X102870Y-49530
X102870Y-52070
X102870Y-86360
X102870Y-88900
X103585Y-82550
X104140Y-102870
X104140Y-106680
X104140Y-110490
X104140Y-114300
X104140Y-119380
X104140Y-121920
X104140Y-124460
X104140Y-127000
X104140Y-129540
X104140Y-132080
X104140Y-134620
X104140Y-137160
X105156Y-95504
X106045Y-52070
X106680Y-73025
X106680Y-76835
X106680Y-102870
X106680Y-106680
X106680Y-110490
X106680Y-114300
X107442Y-86741
X107442Y-91741
X107950Y-46990
X107950Y-55880
X108585Y-52070
X108585Y-82550
X109220Y-61040
X109220Y-66040
X109220Y-73025
X109220Y-76835
X110156Y-95504
X110490Y-46990
X110490Y-55880
X111760Y-69850
X111760Y-76200
X111760Y-78740
X111760Y-81280
X111760Y-83820
X111760Y-86360
X111760Y-88900
X111760Y-91440
X111760Y-119380
X111760Y-121920
X111760Y-124460
X111760Y-127000
X111760Y-129540
X111760Y-132080
X111760Y-134620
X111760Y-137160
X113110Y-95504
X113665Y-103505
X113665Y-107315
X113665Y-111125
X113665Y-114935
X115570Y-73025
X115570Y-119380
X115570Y-121920
X115570Y-124460
X115570Y-127000
X115570Y-129540
X115570Y-132080
X115570Y-134620
X115570Y-137160
X116205Y-103505
X116205Y-107315
X116205Y-111125
X116205Y-114935
X116760Y-69850
X118110Y-61040
X118110Y-66040
X118110Y-73025
X118110Y-95504
X119253Y-105744
X119253Y-110744
X119380Y-76200
X119380Y-78740
X119380Y-81280
X119380Y-83820
X119380Y-86360
X119380Y-88900
X119380Y-91440
X120142Y-72390
X121920Y-92710
X121920Y-95250
X122301Y-87884
X122555Y-105410
X122555Y-113030
X122682Y-72390
X123190Y-119380
X123190Y-121920
X123190Y-124460
X123190Y-127000
X123190Y-129540
X123190Y-132080
X123190Y-134620
X123190Y-137160
X124841Y-87884
X125095Y-74883
X125095Y-79883
X125095Y-101600
X125095Y-105410
X125095Y-113030
X125095Y-116205
X125730Y-84836
X127635Y-90250
X127635Y-95250
X127635Y-101600
X127635Y-105410
X127635Y-113030
X127635Y-116205
X128270Y-84836
X130175Y-101600
X130175Y-105410
X130175Y-113030
X130175Y-116205
X130810Y-67310
X130810Y-69850
X132715Y-101600
X132715Y-105410
X132715Y-113030
X132715Y-116205
X133350Y-93980
X133350Y-96520
X134620Y-64770
X134620Y-72390
X135255Y-105410
X135255Y-113030
X135890Y-75946
X135890Y-91440
X135890Y-93980
X135890Y-96520
X137160Y-64770
X137160Y-72390
X137795Y-105410
X137795Y-113030
X138430Y-75946
X139700Y-64770
X139700Y-72390
X142240Y-74295
X142240Y-101600
X142240Y-104775
X142240Y-107950
X142240Y-111125
X142240Y-119380
X142240Y-121920
X142240Y-124460
X142240Y-127000
X142240Y-129540
X142240Y-132080
X142240Y-134620
X142240Y-137160
X142320Y-77470
X143510Y-48260
X143510Y-91440
X143510Y-93980
X143510Y-96520
X144780Y-101600
X144780Y-104775
X144780Y-107950
X144780Y-111125
X146050Y-48260
X147240Y-74295
X147320Y-77470
X148590Y-68580
X148590Y-71120
X148590Y-80010
X148590Y-83820
X149860Y-119380
X149860Y-121920
X149860Y-124460
X149860Y-127000
X149860Y-129540
X149860Y-132080
X149860Y-134620
X149860Y-137160
X151130Y-80010
X151130Y-83820
X154940Y-72390
X154940Y-74930
X154940Y-77470
X154940Y-81280
X154940Y-83820
X157480Y-77470
X160020Y-62230
X160020Y-64770
X165100Y-119380
X165100Y-121920
X165100Y-124460
X165100Y-127000
X165100Y-129540
X165100Y-132080
X165100Y-134620
X165100Y-137160
X172720Y-119380
X172720Y-121920
X172720Y-124460
X172720Y-127000
X172720Y-129540
X172720Y-132080
X172720Y-134620
X172720Y-137160
T6
X19050Y-54610
X19050Y-57150
X19050Y-59690
X19050Y-62230
X19050Y-64770
X19050Y-67310
X19050Y-69850
X19050Y-72390
X19050Y-74930
X19050Y-77470
X19050Y-80010
X19050Y-82550
X19050Y-85090
X19050Y-87630
X19050Y-90170
X19050Y-92710
X19050Y-95250
X19050Y-97790
X19050Y-100330
X19050Y-102870
X19050Y-105410
X19050Y-107950
X19050Y-110490
X19050Y-113030
X19050Y-115570
X19050Y-118110
X19050Y-120650
X19050Y-123190
X19050Y-125730
X19050Y-128270
X19050Y-130810
X19050Y-133350
X21590Y-54610
X21590Y-57150
X21590Y-59690
X21590Y-62230
X21590Y-64770
X21590Y-67310
X21590Y-69850
X21590Y-72390
X21590Y-74930
X21590Y-77470
X21590Y-80010
X21590Y-82550
X21590Y-85090
X21590Y-87630
X21590Y-90170
X21590Y-92710
X21590Y-95250
X21590Y-97790
X21590Y-100330
X21590Y-102870
X21590Y-105410
X21590Y-107950
X21590Y-110490
X21590Y-113030
X21590Y-115570
X21590Y-118110
X21590Y-120650
X21590Y-123190
X21590Y-125730
X21590Y-128270
X21590Y-130810
X21590Y-133350
X24130Y-54610
X24130Y-57150
X24130Y-59690
X24130Y-62230
X24130Y-64770
X24130Y-67310
X24130Y-69850
X24130Y-72390
X24130Y-74930
X24130Y-77470
X24130Y-80010
X24130Y-82550
X24130Y-85090
X24130Y-87630
X24130Y-90170
X24130Y-92710
X24130Y-95250
X24130Y-97790
X24130Y-100330
X24130Y-102870
X24130Y-105410
X24130Y-107950
X24130Y-110490
X24130Y-113030
X24130Y-115570
X24130Y-118110
X24130Y-120650
X24130Y-123190
X24130Y-125730
X24130Y-128270
X24130Y-130810
X24130Y-133350
T7
X90170Y-46990
X90170Y-49530
X124460Y-68580
X127000Y-68580
X135890Y-84328
X135890Y-86868
X137160Y-48260
X139700Y-48260
T8
X27940Y-59690
X27940Y-62230
X27940Y-64770
X27940Y-67310
X27940Y-69850
X27940Y-72390
X27940Y-74930
X27940Y-77470
X27940Y-80010
X27940Y-82550
X27940Y-85090
X27940Y-87630
X27940Y-90170
X27940Y-92710
X27940Y-95250
X30480Y-59690
X30480Y-62230
X30480Y-64770
X30480Y-67310
X30480Y-69850
X30480Y-72390
X30480Y-74930
X30480Y-77470
X30480Y-80010
X30480Y-82550
X30480Y-85090
X30480Y-87630
X30480Y-90170
X30480Y-92710
X30480Y-95250
X35560Y-45720
X35560Y-48260
X35560Y-50800
X35560Y-53340
X35560Y-55880
X35560Y-58420
X35560Y-60960
X35560Y-63500
X35560Y-66040
X35560Y-68580
X35560Y-71120
X35560Y-73660
X35560Y-76200
X35560Y-83820
X35560Y-124460
X35560Y-132080
X38100Y-76200
X38100Y-83820
X38100Y-124460
X38100Y-132080
X40640Y-76200
X40640Y-83820
X40640Y-121920
X40640Y-124460
X40640Y-132080
X41275Y-86360
X43180Y-76200
X43180Y-83820
X43180Y-121920
X43180Y-124460
X43180Y-132080
X43815Y-86360
X45720Y-76200
X45720Y-83820
X45720Y-121920
X45720Y-124460
X45720Y-132080
X46355Y-86360
X48260Y-76200
X48260Y-83820
X48260Y-121920
X48260Y-124460
X48260Y-132080
X48895Y-86360
X50800Y-76200
X50800Y-83820
X50800Y-121920
X50800Y-124460
X50800Y-132080
X51435Y-86360
X53340Y-45720
X53340Y-76200
X53340Y-83820
X53340Y-121920
X53340Y-124460
X53340Y-132080
X53975Y-86360
X55880Y-45720
X55880Y-76200
X55880Y-83820
X55880Y-121920
X55880Y-124460
X55880Y-132080
X56515Y-86360
X58420Y-45720
X58420Y-76200
X58420Y-83820
X58420Y-121920
X58420Y-124460
X58420Y-132080
X59055Y-86360
X60960Y-45720
X60960Y-76200
X60960Y-83820
X60960Y-121920
X60960Y-124460
X60960Y-132080
X61595Y-86360
X63500Y-45720
X63500Y-76200
X63500Y-83820
X63500Y-121920
X63500Y-124460
X63500Y-132080
X64135Y-86360
X64770Y-99060
X64770Y-101600
X64770Y-104140
X66040Y-45720
X66040Y-76200
X66040Y-83820
X66040Y-121920
X66040Y-124460
X66040Y-132080
X66675Y-86360
X68580Y-45720
X68580Y-76200
X68580Y-83820
X68580Y-121920
X68580Y-124460
X68580Y-132080
X69215Y-86360
X71120Y-45720
X71120Y-76200
X71120Y-83820
X71120Y-121920
X71120Y-124460
X71120Y-132080
X71755Y-86360
X73660Y-45720
X73660Y-76200
X73660Y-83820
X73660Y-121920
X73660Y-124460
X73660Y-132080
X74295Y-86360
X76200Y-45720
X76200Y-76200
X76200Y-83820
X76200Y-121920
X76200Y-124460
X76200Y-132080
X76835Y-86360
X78740Y-45720
X78740Y-76200
X78740Y-83820
X78740Y-124460
X78740Y-132080
X81280Y-45720
X81280Y-76200
X81280Y-83820
X81280Y-124460
X81280Y-132080
X83820Y-76200
X83820Y-83820
X83820Y-99060
X83820Y-101600
X83820Y-104140
X83820Y-106680
X83820Y-109220
X83820Y-111760
X83820Y-114300
X83820Y-116840
X83820Y-124460
X83820Y-132080
X85090Y-58420
X85090Y-60960
X85090Y-63500
X86360Y-76200
X86360Y-83820
X86360Y-86360
X86360Y-88900
X86360Y-91440
X86360Y-93980
X86360Y-96520
X86360Y-99060
X86360Y-101600
X86360Y-104140
X86360Y-106680
X86360Y-109220
X86360Y-111760
X86360Y-114300
X86360Y-116840
X86360Y-119380
X86360Y-121920
X86360Y-124460
X86360Y-132080
X88900Y-76200
X88900Y-83820
X88900Y-86360
X88900Y-88900
X88900Y-91440
X88900Y-93980
X88900Y-96520
X88900Y-99060
X88900Y-101600
X88900Y-104140
X88900Y-106680
X88900Y-109220
X88900Y-111760
X88900Y-114300
X88900Y-116840
X88900Y-119380
X88900Y-121920
X88900Y-124460
X88900Y-132080
X91440Y-76200
X91440Y-83820
X91440Y-124460
X91440Y-132080
X93980Y-58420
X93980Y-60960
X93980Y-63500
X93980Y-66040
X93980Y-68580
X93980Y-71120
X93980Y-73660
X93980Y-76200
X93980Y-78740
X93980Y-81280
X93980Y-83820
X93980Y-86360
X93980Y-88900
X93980Y-91440
X93980Y-93980
X93980Y-96520
X93980Y-99060
X93980Y-101600
X93980Y-104140
X93980Y-106680
X93980Y-109220
X93980Y-111760
X93980Y-114300
X93980Y-116840
X93980Y-119380
X93980Y-121920
X93980Y-124460
X93980Y-127000
X93980Y-129540
X93980Y-132080
X93980Y-134620
X96520Y-58420
X96520Y-60960
X96520Y-63500
X96520Y-66040
X96520Y-68580
X96520Y-71120
X96520Y-73660
X96520Y-76200
X96520Y-78740
X96520Y-81280
X96520Y-83820
X96520Y-86360
X96520Y-88900
X96520Y-91440
X96520Y-93980
X96520Y-96520
X96520Y-99060
X99060Y-58420
X99060Y-60960
X99060Y-63500
X99060Y-66040
X99060Y-68580
X99060Y-71120
X99060Y-73660
X99060Y-76200
X99060Y-78740
X99060Y-81280
X99060Y-83820
X99060Y-86360
X99060Y-88900
X99060Y-91440
X99060Y-93980
X99060Y-96520
X99060Y-99060
X99060Y-119380
X99060Y-121920
X99060Y-124460
X99060Y-127000
X99060Y-129540
X99060Y-132080
X99060Y-134620
X99060Y-137160
X99060Y-140970
X101600Y-58420
X101600Y-99060
X101600Y-102235
X101600Y-104775
X101600Y-107315
X101600Y-109855
X101600Y-112395
X101600Y-140970
X102235Y-70485
X102235Y-73025
X102235Y-75565
X102235Y-78105
X104140Y-58420
X104140Y-99060
X104140Y-140970
X106680Y-58420
X106680Y-99060
X106680Y-140970
X109220Y-58420
X109220Y-99060
X109220Y-140970
X110490Y-104775
X110490Y-107315
X110490Y-109855
X110490Y-112395
X111760Y-58420
X111760Y-99060
X111760Y-140970
X114300Y-58420
X114300Y-99060
X114300Y-140970
X116840Y-58420
X116840Y-99060
X116840Y-140970
X119380Y-58420
X119380Y-99060
X119380Y-140970
X121920Y-58420
X121920Y-99060
X121920Y-140970
X124460Y-99060
X124460Y-140970
X127000Y-99060
X127000Y-140970
X128270Y-119380
X128270Y-121920
X128270Y-124460
X128270Y-127000
X128270Y-129540
X128270Y-132080
X128270Y-134620
X128270Y-137160
X129540Y-99060
X129540Y-140970
X130810Y-76200
X130810Y-78740
X130810Y-81280
X130810Y-83820
X132080Y-99060
X132080Y-140970
X134620Y-99060
X134620Y-140970
X135890Y-121920
X135890Y-124460
X135890Y-127000
X135890Y-129540
X135890Y-132080
X135890Y-134620
X137160Y-99060
X137160Y-140970
X139700Y-99060
X139700Y-140970
X142240Y-99060
X142240Y-140970
X143510Y-114300
X144780Y-99060
X144780Y-140970
X146050Y-114300
X147320Y-99060
X147320Y-140970
X148590Y-114300
X149860Y-93980
X149860Y-99060
X149860Y-102235
X149860Y-104775
X149860Y-107315
X149860Y-109855
X149860Y-140970
X151130Y-114300
X152400Y-93980
X152400Y-99060
X152400Y-140970
X153670Y-114300
X154940Y-93980
X154940Y-99060
X154940Y-140970
X156210Y-114300
X157480Y-99060
X157480Y-140970
X158750Y-114300
X160020Y-99060
X160020Y-121920
X160020Y-124460
X160020Y-127000
X160020Y-129540
X160020Y-132080
X160020Y-134620
X160020Y-140970
X161290Y-114300
X162560Y-78740
X162560Y-81280
X162560Y-83820
X162560Y-140970
X163830Y-114300
X165100Y-140970
X166370Y-114300
X167640Y-140970
X168910Y-82550
X168910Y-114300
X170180Y-140970
X171450Y-82550
X171450Y-114300
X172720Y-140970
X173990Y-82550
T9
X124341Y-59690
X139581Y-59690
T10
X35560Y-78740
X35560Y-81280
X35560Y-127000
X35560Y-129540
X38100Y-78740
X38100Y-81280
X38100Y-127000
X38100Y-129540
X40640Y-78740
X40640Y-81280
X40640Y-127000
X40640Y-129540
X43180Y-78740
X43180Y-81280
X43180Y-127000
X43180Y-129540
X45720Y-78740
X45720Y-81280
X45720Y-127000
X45720Y-129540
X48260Y-78740
X48260Y-81280
X48260Y-127000
X48260Y-129540
X50800Y-78740
X50800Y-81280
X50800Y-127000
X50800Y-129540
X53340Y-78740
X53340Y-81280
X53340Y-127000
X53340Y-129540
X55880Y-78740
X55880Y-81280
X55880Y-127000
X55880Y-129540
X58420Y-78740
X58420Y-81280
X58420Y-127000
X58420Y-129540
X60960Y-78740
X60960Y-81280
X60960Y-127000
X60960Y-129540
X63500Y-78740
X63500Y-81280
X63500Y-127000
X63500Y-129540
X66040Y-78740
X66040Y-81280
X66040Y-127000
X66040Y-129540
X68580Y-78740
X68580Y-81280
X68580Y-127000
X68580Y-129540
X71120Y-78740
X71120Y-81280
X71120Y-127000
X71120Y-129540
X73660Y-78740
X73660Y-81280
X73660Y-127000
X73660Y-129540
X76200Y-78740
X76200Y-81280
X76200Y-127000
X76200Y-129540
X78740Y-78740
X78740Y-81280
X78740Y-127000
X78740Y-129540
X81280Y-78740
X81280Y-81280
X81280Y-127000
X81280Y-129540
X83820Y-78740
X83820Y-81280
X83820Y-127000
X83820Y-129540
X86360Y-78740
X86360Y-81280
X86360Y-127000
X86360Y-129540
X88900Y-78740
X88900Y-81280
X88900Y-127000
X88900Y-129540
X91440Y-78740
X91440Y-81280
X91440Y-127000
X91440Y-129540
T11
X148590Y-64770
X151130Y-48260
X151130Y-64770
X153670Y-48260
X153670Y-64770
X156210Y-48260
T12
X115570Y-49530
X120570Y-49530
X171450Y-46990
X171450Y-51990
X171450Y-58500
X171450Y-63500
X171450Y-69930
X171450Y-74930
X171450Y-88900
X171450Y-93900
X171450Y-100330
X171450Y-105330
T13
X128270Y-53340
X140970Y-53340
X146050Y-53340
X151130Y-88900
X158750Y-53340
X163830Y-88900
T14
X163830Y-52090
X163830Y-72390
T15
X21590Y-49530
X21590Y-138430
T0
M30
